<svg fill="#1e90ff" enable-background="new 0 0 315.58 315.58" viewBox="0 0 315.58 315.58" xmlns="http://www.w3.org/2000/svg"><path d="m310.58 33.331h-305.58c-2.761 0-5 2.238-5 5v238.918c0 2.762 2.239 5 5 5h305.58c2.763 0 5-2.238 5-5v-238.918c0-2.762-2.237-5-5-5zm-25 209.055-68.766-71.214c-.76-.785-2.003-.836-2.823-.114l-47.695 41.979-60.962-75.061c-.396-.49-.975-.77-1.63-.756-.631.013-1.22.316-1.597.822l-72.107 96.755v-171.466h255.58z"/><path d="m210.059 135.555c13.538 0 24.529-10.982 24.529-24.531 0-13.545-10.991-24.533-24.529-24.533-13.549 0-24.528 10.988-24.528 24.533 0 13.548 10.98 24.531 24.528 24.531z"/></svg>