<svg fill="#FFFFFF" xmlns:dc="http://purl.org/dc/elements/1.1/" xmlns:cc="http://creativecommons.org/ns#" xmlns:rdf="http://www.w3.org/1999/02/22-rdf-syntax-ns#" xmlns:svg="http://www.w3.org/2000/svg" xmlns="http://www.w3.org/2000/svg" xmlns:sodipodi="http://sodipodi.sourceforge.net/DTD/sodipodi-0.dtd" xmlns:inkscape="http://www.inkscape.org/namespaces/inkscape" version="1.1" x="0px" y="0px" viewBox="0 0 100 100"><g transform="translate(0,-952.36218)"><path style="text-indent:0;text-transform:none;direction:ltr;block-progression:tb;baseline-shift:baseline;color:#000000;enable-background:accumulate;" d="m 50,960.36216 c -23.1603,0 -42.0000003,18.83975 -42.0000003,42.00004 0,23.1602 18.8397003,42 42.0000003,42 23.1603,0 42,-18.8398 42,-42 0,-23.16029 -18.8397,-42.00004 -42,-42.00004 z m 0,6 c 19.9175,0 36,16.08245 36,36.00004 0,19.9175 -16.0825,36 -36,36 -19.9175,0 -36,-16.0825 -36,-36 0,-19.91759 16.0825,-36.00004 36,-36.00004 z m -10.6875,13.96875 c -1.2915,0.0272 -2.5482,0.39241 -3.625,1.03125 -2.1536,1.27769 -3.6261,3.71146 -3.6875,6.46874 l 0,28.9688 c 0.062,2.757 1.537,5.1843 3.6875,6.4687 2.1505,1.2845 5.0263,1.418 7.4687,0.094 8.3598,-4.8072 16.7143,-9.6832 25.0626,-14.5312 2.2271,-1.2935 3.7812,-3.7462 3.7812,-6.5313 0,-2.785 -1.554,-5.2379 -3.7812,-6.5312 -8.412,-4.7221 -16.62,-9.85379 -25.0626,-14.50004 -1.2989,-0.62664 -2.6501,-0.95082 -3.8437,-0.9375 z m 0.2187,6 c 0.2387,0.0248 0.4863,0.12115 0.7813,0.21875 l 24.9063,14.40624 c 0.4942,0.287 0.7812,0.7354 0.7812,1.3438 0,0.6083 -0.2869,1.0566 -0.7812,1.3437 l -24.9063,14.4375 c -0.6645,0.3603 -1.1123,0.2816 -1.5313,0.031 -0.4052,-0.2421 -0.7446,-0.642 -0.7812,-1.375 l 0,-28.8437 c 0.036,-0.73357 0.3473,-1.1361 0.75,-1.37504 0.3128,-0.16559 0.5426,-0.21232 0.7812,-0.1875 z" fill="#FFFFFF" fill-opacity="1" stroke="none" marker="none" visibility="visible" display="inline" overflow="visible"></path></g></svg>