<svg fill="#1e90ff" enable-background="new 0 0 283.922 283.922" viewBox="0 0 283.922 283.922" xmlns="http://www.w3.org/2000/svg"><path d="m266.422 0h-97.625c-9.65 0-17.5 7.851-17.5 17.5s7.85 17.5 17.5 17.5h55.377l-92.375 92.374c-3.307 3.305-5.127 7.699-5.127 12.375s1.819 9.069 5.125 12.371c3.306 3.309 7.699 5.13 12.375 5.13 4.674 0 9.069-1.82 12.376-5.127l92.374-92.375v55.377c0 9.649 7.851 17.5 17.5 17.5s17.5-7.851 17.5-17.5v-97.625c0-9.649-7.851-17.5-17.5-17.5z"/><path d="m201.137 253.922h-171.137v-171.137h128.711l30-30h-173.711c-8.284 0-15 6.716-15 15v201.137c0 8.284 6.716 15 15 15h201.137c8.284 0 15-6.716 15-15v-173.711l-30 30z"/></svg>