<svg xmlns="http://www.w3.org/2000/svg" xmlns:xlink="http://www.w3.org/1999/xlink" width="100" height="100" viewBox="0 0 100 100"><g><g transform="translate(50 50) scale(0.69 0.69) rotate(0) translate(-50 -50)" style="fill:#bfa51f"><svg fill="#bfa51f" xmlns="http://www.w3.org/2000/svg" xmlns:xlink="http://www.w3.org/1999/xlink" version="1.1" x="0px" y="0px" viewBox="0 0 100 100" enable-background="new 0 0 100 100" xml:space="preserve"><g><path fill="none" d="M51.932,63.7c-0.061-1.734-0.123-3.499-0.168-5.271c-0.007,5.282-0.008,10.72,0.41,16.028   C52.183,70.861,52.056,67.229,51.932,63.7z"></path><path fill="none" d="M46.752,64.571c-0.077-1.764-0.156-3.559-0.217-5.361c0.008,4.894,0.068,9.883,0.531,14.739   C47.028,70.811,46.889,67.648,46.752,64.571z"></path><path fill="none" d="M57.249,77.355c-0.005,0.014-0.011,0.029-0.016,0.043c0.122-0.151,0.157-0.29,0.252-0.649l0.026-0.099   c0.297-1.145,0.098-2.843-0.079-4.342c-0.092-0.78-0.179-1.517-0.2-2.163c-0.025-0.754-0.048-1.511-0.071-2.268   c-0.005,2.887-0.014,8.455,0.079,9.153C57.279,77.13,57.284,77.244,57.249,77.355z"></path><path fill="none" d="M61.306,85.076l-0.256,0.005c-4.26,0.079-8.664,0.161-13.007,0.161c0,0,0,0-0.001,0c0,0,0,0,0,0   c-3.662,0-6.976-0.06-10.035-0.182c-1.02-0.041-2.011-0.089-2.978-0.143c-0.251,0.69-0.539,1.346-0.845,1.982   c-0.03,0.062-0.052,0.132-0.083,0.194c0.372-0.007,0.748-0.017,1.127-0.028c0.484-0.014,0.969-0.027,1.453-0.033   c0.159-0.002,0.317,0.002,0.476,0.002c0.262,0,0.524-0.004,0.785,0.003c-0.003-0.02-0.004-0.042-0.004-0.063   c0-0.083,0.02-0.161,0.056-0.23c-0.035-0.069-0.055-0.147-0.055-0.229c0-0.273,0.221-0.494,0.495-0.494   c0.399,0,0.713,0.318,0.713,0.722c0,0.197-0.076,0.386-0.211,0.521c-0.001,0.001-0.002,0.002-0.003,0.003c0,0,0,0.001,0.001,0.001   c0.054,0.055,0.093,0.121,0.126,0.192c0.005,0.011,0.015,0.019,0.02,0.031c0.034,0.084,0.053,0.176,0.053,0.273   c0,0.093-0.019,0.18-0.05,0.261c-0.011,0.028-0.03,0.05-0.044,0.076c-0.022,0.041-0.04,0.085-0.07,0.121   c1.446,0.003,2.891,0.008,4.336,0.013c1.989,0.008,3.977,0.014,5.965,0.014c4.631,0,10.086-0.034,15.67-0.273   c-0.342-0.87-0.64-1.858-0.889-2.948l-1.969,0.034C61.849,85.179,61.551,85.187,61.306,85.076z"></path><path fill="none" d="M39.281,48.054c-0.092,2.604-0.186,5.283-0.224,7.893c-0.126,8.209-0.324,16.851-0.621,27.156   c0.734-0.028,1.482-0.052,2.245-0.072c2.291-0.062,4.726-0.092,7.372-0.092c0,0,0,0,0,0c0,0,0,0,0.001,0   c4.261,0,8.544,0.078,12.698,0.156c-0.217-6.453-0.228-13.013-0.239-19.363c-0.005-2.565-0.009-5.13-0.026-7.692   c-0.017-2.614-0.065-5.236-0.113-7.862c-0.116-6.353-0.236-12.918,0.097-19.351l-0.516,0.026c-3.62,0.186-7.363,0.38-11.078,0.38   c-3.608,0-6.758-0.185-9.602-0.567c0.118,1.573,0.192,3.158,0.233,4.748c0.021,0.795,0.033,1.592,0.039,2.389   c0.028,3.986-0.115,7.987-0.255,11.907C39.288,47.824,39.285,47.941,39.281,48.054z M53.816,46.747   c0.07-0.085,0.164-0.138,0.264-0.177c0.015-0.005,0.03-0.009,0.045-0.013c0.206-0.063,0.438-0.042,0.607,0.086   c-0.007-0.048-0.012-0.095-0.02-0.143c-0.062-0.387-0.137-0.782-0.239-1.204c-0.053-0.232-0.003-0.463,0.137-0.639   c0.347-0.433,1.135-0.303,1.306,0.24c0.086,0.278,0.159,0.564,0.219,0.858c0.011-0.553,0.029-1.112,0.043-1.668   c0.009-0.335,0.016-0.666,0.026-1.001c0.048-1.631,0.113-3.271,0.197-4.919c0.016-0.315,0.035-0.629,0.053-0.945   c0.096-1.727,0.209-3.458,0.357-5.189c0.026-0.366,0.327-0.647,0.7-0.647c0.383,0,0.684,0.303,0.684,0.69   c-0.008,3.663-0.065,7.384-0.12,10.981c-0.072,4.715-0.147,9.591-0.112,14.385c0.03,4.197,0.116,8.459,0.257,12.67   c0.019,0.605,0.103,1.321,0.193,2.079c0.186,1.586,0.399,3.383,0.053,4.708l-0.026,0.1c-0.169,0.645-0.255,0.894-0.812,1.397   c-0.184,0.161-0.406,0.246-0.631,0.246c-0.157,0-0.309-0.04-0.452-0.118c-0.085-0.04-0.196-0.098-0.307-0.156   c-0.352-0.184-0.524-0.578-0.426-0.976c0.064-0.258,0.224-0.467,0.434-0.588c-0.089-1.048-0.084-3.452-0.073-9.129   c0.001-0.598,0.002-1.123,0.002-1.532c0-0.409-0.001-0.701-0.003-0.836c-0.077-3.52-0.116-7.184-0.116-10.886   c0.001-1.626,0.007-3.28,0.023-4.954c-0.009,0.01-0.022,0.016-0.031,0.025c-0.02,0.019-0.041,0.034-0.063,0.05   c-0.043,0.033-0.088,0.061-0.138,0.084c-0.027,0.012-0.052,0.024-0.08,0.033c-0.018,0.006-0.033,0.016-0.051,0.021   c0.03,0.124,0.06,0.249,0.09,0.371c0.053,0.186,0.014,0.392-0.106,0.552c-0.125,0.163-0.323,0.261-0.53,0.261   c-0.291,0-0.54-0.189-0.619-0.472c-0.078-0.264-0.165-0.535-0.252-0.807c-0.235-0.739-0.477-1.502-0.621-2.285   C53.639,47.105,53.689,46.901,53.816,46.747z M51.315,32.227c0.036-0.366,0.336-0.64,0.7-0.64c0.381,0,0.674,0.289,0.685,0.672   c0.068,2.193,0.088,4.407,0.085,6.613c-0.003,2.206-0.029,4.403-0.055,6.564c-0.035,2.908-0.071,5.916-0.048,8.867   c0.02,3.115,0.131,6.291,0.24,9.363c0.145,4.156,0.296,8.454,0.225,12.678c-0.006,0.496-0.382,0.874-0.877,0.874   c-0.486,0-0.871-0.352-0.918-0.836c-0.592-6.009-0.584-12.204-0.577-18.194c0.002-1.296,0.003-2.59-0.001-3.879l-0.008-1.635   C50.735,45.956,50.701,39.01,51.315,32.227z M48.822,81.437c0.032-0.012,0.066-0.012,0.1-0.019c0.036-0.006,0.069-0.02,0.106-0.02   c0.014,0.001,0.026,0.001,0.041,0.002c0.002,0,0.003-0.001,0.005-0.001c0.238,0.013,0.479,0.019,0.719,0.019   c0.002,0,0.004,0,0.005,0c-0.025-0.03-0.039-0.067-0.058-0.101c-0.011-0.021-0.026-0.039-0.035-0.062   c-0.027-0.069-0.044-0.144-0.044-0.225c0-0.135,0.051-0.252,0.123-0.351c0.011-0.016,0.019-0.041,0.03-0.054   c0.002-0.003,0.008-0.005,0.011-0.007c0.11-0.118,0.264-0.193,0.441-0.193c0.657-0.011,1.322-0.031,1.988-0.052   c0.9-0.027,1.8-0.055,2.699-0.059c0.001,0,0.001,0,0.002,0c0.16,0,0.299,0.061,0.417,0.148c0.175,0.129,0.294,0.327,0.294,0.567   c0,0.301-0.176,0.553-0.432,0.66c-0.085,0.036-0.179,0.055-0.279,0.055c-0.52,0-1.039-0.009-1.559-0.021   c0.01,0.038,0.016,0.076,0.02,0.117c0.032,0.353-0.2,0.658-0.551,0.722c-0.688,0.129-1.435,0.196-2.221,0.196   c-0.526,0-1.067-0.028-1.652-0.086c-0.259-0.026-0.468-0.201-0.549-0.434c-0.027-0.078-0.04-0.162-0.035-0.249   C48.421,81.726,48.589,81.517,48.822,81.437z M43.939,55.62c0.104,0,0.202,0.021,0.291,0.059c0.025,0.01,0.042,0.03,0.065,0.043   c0.06,0.034,0.12,0.067,0.168,0.116c0.002,0.002,0.005,0.003,0.006,0.004c0.004-0.004,0.011-0.005,0.015-0.009   c0.125-0.113,0.289-0.186,0.474-0.186c0.136,0,0.254,0.045,0.359,0.108c0.006,0.003,0.011,0.008,0.018,0.011   c0.066,0.042,0.123,0.092,0.171,0.153c0.011,0.013,0.029,0.02,0.038,0.034c0-0.65,0-1.3-0.002-1.947   c-0.017-7.089,0.03-14.626,0.805-21.984c0.045-0.367,0.339-0.626,0.699-0.626c0.377,0,0.672,0.297,0.672,0.678   c0.006,3.603-0.073,7.26-0.151,10.797c-0.079,3.649-0.162,7.421-0.15,11.131c0.014,3.503,0.172,7.072,0.324,10.523   c0.165,3.739,0.335,7.605,0.325,11.406c0,0.126-0.024,0.243-0.068,0.35c-0.016,0.04-0.048,0.07-0.069,0.106   c-0.037,0.062-0.07,0.125-0.121,0.175c-0.005,0.005-0.006,0.012-0.011,0.016c-0.046,0.042-0.104,0.067-0.157,0.097   c-0.035,0.02-0.064,0.048-0.103,0.063c-0.103,0.041-0.213,0.064-0.328,0.064c-0.472,0-0.859-0.342-0.917-0.812   c-0.135-1.128-0.239-2.265-0.33-3.406c-0.019-0.233-0.038-0.466-0.055-0.699c-0.08-1.103-0.144-2.209-0.193-3.318   c-0.008-0.194-0.014-0.388-0.022-0.582c-0.041-1.038-0.071-2.077-0.092-3.115c-0.003-0.151-0.008-0.302-0.01-0.453   c-0.02-1.141-0.031-2.279-0.037-3.415c0-0.079-0.002-0.158-0.003-0.237c-0.006,0.022-0.019,0.04-0.027,0.061   c-0.01,0.028-0.021,0.054-0.034,0.079c-0.022,0.04-0.048,0.075-0.077,0.109c-0.018,0.021-0.034,0.042-0.055,0.06   c-0.036,0.032-0.077,0.056-0.12,0.078c-0.021,0.011-0.039,0.026-0.062,0.034c-0.068,0.026-0.141,0.043-0.218,0.043   c-0.329,0-0.597-0.257-0.61-0.585c-0.006-0.306-0.019-0.606-0.03-0.907c-0.024,0.017-0.054,0.026-0.08,0.04   c-0.023,0.011-0.043,0.024-0.067,0.033c-0.072,0.027-0.149,0.045-0.231,0.045c-0.361,0-0.653-0.282-0.663-0.642l-0.017-0.636   c-0.02-0.744-0.041-1.485-0.05-2.23C43.209,55.939,43.529,55.62,43.939,55.62z M40.384,68.693c0.013-0.487,0.025-0.972,0.034-1.456   c0.068-4.065,0.159-8.13,0.257-12.196c0.053-2.199,0.066-4.422,0.078-6.653c0.032-5.688,0.065-11.569,0.795-17.222   c0.043-0.337,0.322-0.582,0.663-0.582c0.359,0,0.641,0.284,0.641,0.646c0.034,4.188-0.094,8.454-0.216,12.579   c-0.099,3.29-0.2,6.69-0.218,10.028c-0.018,3.863-0.055,7.727-0.099,11.583c-0.009,0.754-0.03,1.511-0.05,2.269   c-0.086,3.207-0.176,6.522,0.653,9.645c0.073,0.267,0.023,0.542-0.137,0.752c-0.165,0.216-0.432,0.346-0.714,0.346   c-0.382,0-0.712-0.236-0.841-0.599C40.22,74.862,40.303,71.726,40.384,68.693z"></path><path fill="none" d="M61.373,47.416c0.033-4.65,0.067-9.417-0.075-14.15c0,0.002,0,0.005,0,0.007   c-0.001,0.045-0.001,0.09-0.002,0.135c-0.033,1.478-0.045,2.958-0.048,4.438c-0.001,0.45,0.001,0.9,0.002,1.35   c0.004,1.15,0.012,2.299,0.026,3.444c0.005,0.405,0.009,0.811,0.015,1.215c0.021,1.442,0.046,2.881,0.072,4.305   c0.001,0.055,0.002,0.11,0.003,0.165C61.368,48.023,61.37,47.72,61.373,47.416z"></path><path fill="none" d="M61.429,84.085c0.107,0,0.212,0.035,0.297,0.099c0.039-0.035,0.06-0.059,0.08-0.077   c0.006-0.005,0.019-0.008,0.025-0.011c0.013-0.007,0.022-0.016,0.042-0.019c-0.086-0.035-0.158-0.095-0.212-0.169   c-0.072,0.089-0.172,0.147-0.29,0.169c-0.006,0.001-0.011,0.008-0.017,0.009l0.065-0.001   C61.423,84.085,61.426,84.085,61.429,84.085z"></path><path fill="none" d="M46.222,90.509C46.221,90.509,46.222,90.509,46.222,90.509c-5.304,0-10.063-0.197-14.537-0.602   c-0.085,0.15-0.173,0.298-0.261,0.447c-0.183,0.309-0.366,0.618-0.518,0.946c-0.235,0.503-0.417,1.022-0.609,1.571   c1.048-0.114,2.207-0.166,3.637-0.166c0.748,0,1.497,0.014,2.243,0.027c0.734,0.014,1.466,0.026,2.191,0.026h0.235   c3.363-0.012,6.775-0.048,10.141-0.11c2.363-0.044,4.748-0.123,7.117-0.212c0.106-0.004,0.21-0.008,0.316-0.012   c-0.008-0.037-0.013-0.075-0.014-0.115c-0.011-0.351,0.253-0.641,0.602-0.664l0.862-0.056c-0.01-0.007-0.014-0.021-0.024-0.028   c-0.069-0.054-0.124-0.12-0.166-0.197c-0.013-0.024-0.025-0.047-0.035-0.073c-0.038-0.097-0.062-0.201-0.052-0.315   c0.008-0.092,0.035-0.177,0.074-0.254c0.001-0.002,0.003-0.004,0.004-0.006c0.079-0.153,0.211-0.265,0.37-0.319   c0.005-0.002,0.012-0.002,0.017-0.003c0.059-0.018,0.119-0.036,0.184-0.036c0.017,0.002,0.034,0.003,0.051,0.004   c0.004,0,0.007-0.002,0.011-0.001c0.481,0.049,0.978,0.085,1.511,0.109c0.496,0.022,1.02,0.032,1.583,0.034   c0.051,0,0.097,0.001,0.149,0.001c0.397,0,0.795-0.005,1.194-0.012c0.001,0,0.001,0,0.001,0c0.406,0,0.713,0.296,0.729,0.689   c0.017,0.409-0.275,0.743-0.68,0.777c-0.205,0.016-0.41,0.027-0.613,0.035c0,0.006,0,0.011,0.001,0.016   c0.002,0.064-0.006,0.127-0.02,0.186c2.201-0.091,4.401-0.179,6.602-0.25c-0.404-0.701-0.777-1.432-1.115-2.184   c-5.055,0.285-10.37,0.562-15.766,0.683C49.839,90.486,48.031,90.509,46.222,90.509z"></path><path fill="none" d="M31.582,7.402c0.099-0.051,0.2-0.098,0.301-0.146c0.195-0.092,0.393-0.178,0.595-0.257   c0.108-0.042,0.216-0.085,0.325-0.123c0.216-0.076,0.436-0.144,0.658-0.208c0.092-0.026,0.183-0.057,0.276-0.081   c0.311-0.081,0.626-0.152,0.943-0.212c0.066-0.012,0.132-0.02,0.197-0.032c0.259-0.045,0.517-0.085,0.777-0.118   c0.114-0.014,0.227-0.026,0.341-0.038c0.214-0.023,0.427-0.044,0.639-0.06c0.118-0.009,0.235-0.018,0.352-0.025   c0.218-0.014,0.434-0.024,0.648-0.032c0.098-0.004,0.196-0.009,0.293-0.011c0.305-0.008,0.605-0.013,0.897-0.013h0.149   c0.69,0.003,1.378,0.007,2.066,0.012c-0.816-0.039-1.645-0.068-2.474-0.068c-3.6,0-6.028,0.582-7.784,1.88   c0.05-0.034,0.106-0.059,0.156-0.091C31.147,7.644,31.361,7.517,31.582,7.402z"></path><path fill="none" d="M33.179,20.901c-0.042-0.014-0.08-0.031-0.121-0.045c-0.394-0.134-0.769-0.292-1.13-0.465   c-0.087-0.042-0.174-0.082-0.259-0.126c-0.379-0.195-0.741-0.408-1.077-0.644c-0.05-0.035-0.094-0.074-0.143-0.11   c-0.293-0.215-0.564-0.447-0.816-0.692c-0.039-0.037-0.087-0.068-0.125-0.106c1.11,1.498,2.844,2.658,5.153,2.569   c-0.05-0.009-0.096-0.027-0.146-0.038C34.054,21.152,33.607,21.041,33.179,20.901z"></path><path fill="none" d="M41.773,89.466c0.306,0.007,0.612,0.014,0.922,0.02c1.152,0.021,2.32,0.035,3.526,0.035   c0.001,0,0.002,0,0.004,0c1.641,0,3.279-0.024,4.912-0.058c0.454-0.009,0.906-0.021,1.359-0.032   c1.314-0.034,2.622-0.075,3.924-0.124c0.322-0.012,0.647-0.022,0.969-0.035c1.319-0.053,2.623-0.115,3.922-0.179   c-0.926,0.027-1.84,0.047-2.747,0.065c-0.228,0.005-0.453,0.009-0.68,0.013c-0.889,0.016-1.769,0.029-2.631,0.038   c-0.052,0.001-0.105,0.001-0.156,0.002c-0.92,0.009-1.815,0.015-2.697,0.019c-0.224,0.001-0.443,0.002-0.665,0.003   c-0.841,0.003-1.669,0.005-2.466,0.005c-1.99,0-3.978-0.007-5.968-0.014c-2.177-0.007-4.356-0.012-6.534-0.01   c-0.335,0-0.671,0.002-1.006,0.003c0.855,0.052,1.713,0.103,2.595,0.141c0.203,0.009,0.413,0.015,0.618,0.023   C39.891,89.415,40.824,89.444,41.773,89.466z"></path><path fill="none" d="M57.03,27.821c-1.596-0.005-3.252-0.023-4.874-0.045c-0.001,0-0.002,0-0.003,0   c-1.86-0.026-3.72-0.053-5.578-0.053c-0.502,0-0.985,0.003-1.46,0.007c-0.141,0.001-0.276,0.003-0.415,0.005   c-0.346,0.004-0.686,0.009-1.018,0.015c-0.133,0.003-0.266,0.005-0.397,0.008c-0.348,0.008-0.689,0.017-1.024,0.027   c-0.098,0.003-0.199,0.006-0.296,0.009c-0.417,0.014-0.826,0.03-1.226,0.048c0.068,0.007,0.131,0.018,0.199,0.025   c0.193,0.02,0.393,0.036,0.589,0.055c0.532,0.051,1.074,0.096,1.63,0.135c0.257,0.018,0.518,0.034,0.78,0.049   c0.544,0.032,1.101,0.057,1.668,0.077c0.249,0.009,0.494,0.02,0.748,0.027c0.818,0.022,1.654,0.036,2.525,0.036   c3.69,0,7.42-0.192,11.026-0.379l1.066-0.054c0.064-0.005,0.122,0.006,0.177,0.024c0.021,0.007,0.039,0.018,0.06,0.028   c0.02,0.01,0.041,0.016,0.06,0.028c0.073-0.058,0.163-0.093,0.257-0.103c-1.17,0.024-2.413,0.039-3.783,0.039   C57.503,27.827,57.266,27.822,57.03,27.821z"></path><path fill="none" d="M38.366,23.691c0.016,0.004,0.034,0.007,0.05,0.011c0.386,0.089,0.887,0.122,1.457,0.114   c0.152-0.003,0.31-0.012,0.467-0.02c-0.066-0.004-0.12-0.015-0.183-0.021c-0.134-0.012-0.262-0.027-0.387-0.044   c-0.208-0.028-0.402-0.064-0.585-0.106c-0.106-0.025-0.214-0.048-0.312-0.078c-0.179-0.054-0.338-0.12-0.489-0.19   c-0.072-0.033-0.153-0.062-0.218-0.099c-0.192-0.109-0.361-0.232-0.5-0.374c-0.007-0.007-0.018-0.011-0.024-0.018   c-0.058-0.06-0.102-0.127-0.15-0.192c-0.028-0.038-0.063-0.072-0.088-0.112c-0.004,0.316,0.069,0.562,0.219,0.739   c0.047,0.056,0.081,0.12,0.099,0.187h0.001c0.004,0,0.007,0.002,0.01,0.002c0.073,0.002,0.146,0.017,0.214,0.052   C38.064,23.603,38.206,23.652,38.366,23.691z"></path><path fill="none" d="M48.762,93.637c-3.371,0.062-6.788,0.099-10.156,0.11h-0.239c-0.731,0-1.468-0.013-2.209-0.026   c-0.587-0.011-1.177-0.018-1.766-0.021c-0.456-0.002-0.901-0.001-1.329,0.005c-0.07,0.001-0.146,0.001-0.215,0.003   c-0.179,0.004-0.343,0.011-0.513,0.017c-0.136,0.005-0.27,0.011-0.401,0.017c1.618,0.181,3.404,0.269,5.452,0.269   c2.204,0,4.45-0.1,6.621-0.198c1.609-0.072,3.196-0.143,4.734-0.173c5.499-0.106,11.623-0.228,17.703-0.621   c-1.845,0.067-3.691,0.132-5.536,0.208C56.93,93.392,52.816,93.562,48.762,93.637z"></path><path fill="none" d="M38.487,32.506c-0.002-0.069-0.006-0.138-0.009-0.207c-0.25,4.665-0.218,9.399-0.186,14.012   c0.004,0.479,0.007,0.959,0.01,1.442c0.001-0.026,0.002-0.052,0.003-0.078c0.038-1.06,0.074-2.128,0.109-3.197   c0.01-0.308,0.02-0.616,0.029-0.924c0.034-1.132,0.064-2.267,0.085-3.404c0.003-0.175,0.004-0.35,0.007-0.525   c0.016-1.014,0.023-2.028,0.021-3.041c0-0.235,0.001-0.471-0.001-0.707C38.548,34.751,38.526,33.627,38.487,32.506z"></path><path fill="none" d="M64.866,19.903c0.393,0.093,0.85,0.151,1.29,0.151c1.344,0,2.544-0.527,3.47-1.524   c1.111-1.196,1.671-2.909,1.538-4.7c-0.283-3.938-3.13-5.332-5.898-6.168c-2.328-0.082-4.642-0.162-6.951-0.236   c-0.681-0.022-1.358-0.039-2.038-0.06c-1.658-0.051-3.314-0.099-4.968-0.14c-0.272-0.007-0.544-0.011-0.815-0.018   c0.015,0.061,0.021,0.126,0.017,0.193c-0.005,0.083-0.025,0.161-0.056,0.233c0.094,0.01,0.187,0.02,0.279,0.032   c0.415,0.057,0.705,0.41,0.677,0.823c-0.027,0.392-0.338,0.677-0.741,0.677c-0.001,0-0.002,0-0.003,0   c-0.823-0.005-1.649-0.009-2.473-0.009l-0.998,0.002c-0.343,0-0.619-0.249-0.66-0.592c-0.009-0.081-0.003-0.16,0.015-0.234   c0.006-0.023,0.018-0.043,0.026-0.066c0.017-0.049,0.035-0.096,0.063-0.139c0.015-0.024,0.036-0.042,0.055-0.063   c0.03-0.035,0.06-0.069,0.098-0.097c0.024-0.018,0.051-0.03,0.078-0.045c0.028-0.015,0.052-0.036,0.083-0.048   c-0.353-0.037-0.697-0.077-1.029-0.115c-0.088-0.013-0.167-0.042-0.238-0.082c-0.021-0.012-0.035-0.031-0.055-0.045   c-0.045-0.033-0.091-0.064-0.126-0.106c-0.02-0.024-0.03-0.055-0.046-0.082c-0.024-0.04-0.051-0.077-0.065-0.121   c-0.011-0.034-0.01-0.072-0.016-0.108c-0.006-0.039-0.018-0.076-0.017-0.117c-2.125-0.034-4.254-0.058-6.39-0.065h-0.145   c-6.163,0-9.272,1.76-10.079,5.708c-0.352,1.722-0.07,3.247,0.839,4.533c0.005,0.007,0.011,0.013,0.016,0.02   c-0.014-0.026-0.02-0.055-0.034-0.081c-0.154-0.307-0.287-0.621-0.39-0.936c-0.009-0.029-0.016-0.055-0.024-0.084   c-0.104-0.33-0.185-0.658-0.235-0.967c-0.023-0.143,0.034-0.359,0.127-0.469c0.111-0.132,0.273-0.208,0.445-0.208   c0.219,0,0.487,0.203,0.55,0.411c0.088,0.265,0.206,0.537,0.34,0.806c0.001-0.002,0.003-0.004,0.003-0.006   c0.013-0.035,0.035-0.06,0.052-0.091c0.018-0.029,0.033-0.061,0.055-0.086c0.113-0.141,0.271-0.226,0.452-0.226   c0.277,0,0.509,0.182,0.577,0.452c0.092,0.321,0.314,0.731,0.547,1.006c0.184,0.211,0.413,0.328,0.705,0.478   c0.113,0.058,0.229,0.118,0.345,0.184c0.297,0.163,0.445,0.522,0.355,0.869c-0.089,0.344-0.38,0.575-0.723,0.575   c-0.011,0-0.04-0.001-0.05-0.002c-0.032-0.003-0.058-0.018-0.09-0.022c-0.08-0.012-0.163-0.021-0.238-0.041   c-0.001,0.001-0.002,0.002-0.002,0.004c-0.042,0.093-0.106,0.169-0.178,0.235c-0.015,0.014-0.029,0.028-0.046,0.04   c-0.075,0.058-0.158,0.102-0.25,0.126c-0.004,0.001-0.007,0.005-0.011,0.006c0.009,0.005,0.017,0.011,0.026,0.016   c0.145,0.08,0.3,0.15,0.452,0.222c0.105,0.05,0.206,0.105,0.315,0.152c0.163,0.07,0.336,0.13,0.506,0.192   c0.107,0.039,0.21,0.084,0.32,0.119c0.192,0.063,0.393,0.113,0.593,0.166c0.096,0.025,0.187,0.056,0.284,0.079   c0.301,0.07,0.609,0.128,0.924,0.174c0.031-0.004,0.061-0.007,0.076-0.007c1.016-0.024,4.378-0.329,4.482-3.219   c0.037-1.063-0.608-2.065-1.569-2.435c-0.19-0.073-0.403-0.102-0.621-0.095c-0.654,0.022-1.35,0.374-1.588,0.862   c-0.124,0.254-0.117,0.522,0.019,0.799c0.046,0.092,0.105,0.186,0.18,0.28c0.184,0.231,0.219,0.539,0.093,0.802   c-0.208,0.428-0.811,0.55-1.173,0.215c-0.661-0.622-0.994-1.449-0.918-2.274c0.077-0.834,0.569-1.598,1.347-2.099   c1.562-0.997,3.895-0.47,5.129,1.076c0.959,1.202,1.244,2.636,0.802,4.036c-0.487,1.54-1.806,2.865-3.421,3.467   c0.037,0.149,0.107,0.275,0.214,0.386c0.311,0.325,0.919,0.53,1.812,0.613c0.298,0.027,0.628,0.041,0.989,0.041   c0.796,0,1.599-0.067,2.246-0.12c0.403-0.033,0.743-0.061,0.983-0.066l8.927-0.189c2.905-0.066,5.809-0.131,8.715-0.161   l0.011-0.764c-0.001-0.244-0.002-0.511,0.038-0.779c-1.249-0.615-2.11-1.523-2.564-2.704c-0.805-2.099,0.253-4.607,2.409-5.711   c0.682-0.346,1.487-0.536,2.271-0.536c1.282,0,2.371,0.481,3.067,1.354c0.597,0.749,0.78,1.873,0.446,2.734   c-0.265,0.68-0.81,1.118-1.539,1.233c-0.026,0.004-0.136,0.013-0.162,0.013c-0.518,0-0.947-0.397-1.001-0.922   c-0.048-0.481,0.255-0.885,0.737-0.982c0.145-0.029,0.253-0.078,0.259-0.119c0.03-0.214-0.272-0.655-0.541-0.923   c-0.09-0.089-0.176-0.159-0.245-0.195c-0.263-0.141-0.614-0.213-1.024-0.213l-0.186,0.005c-0.971,0.062-1.897,0.636-2.411,1.498   c-0.414,0.693-0.516,1.32-0.311,1.917c0.338,0.983,1.553,1.927,3.424,2.663C64.765,19.877,64.831,19.888,64.866,19.903z    M54.626,21.012c-0.067,0.339-0.356,0.577-0.705,0.577c0.008,0.01-0.106-0.006-0.134-0.012c-0.127-0.019-0.258-0.042-0.39-0.066   c0.018,0.069,0.027,0.141,0.025,0.215c-0.013,0.39-0.312,0.685-0.697,0.685c-0.011,0-0.038-0.001-0.048-0.002   c-1.133-0.071-2.289-0.189-3.284-0.296c-0.35-0.031-0.618-0.34-0.602-0.703c0.015-0.353,0.294-0.62,0.648-0.62   c0.004,0,0.014,0,0.018,0c0.308,0.013,0.627,0.024,0.953,0.039c-0.004-0.04,0.005-0.078,0.007-0.117   c0.002-0.034-0.001-0.069,0.006-0.102c0.009-0.043,0.029-0.081,0.047-0.122c0.013-0.03,0.021-0.063,0.038-0.091   c0.025-0.041,0.061-0.073,0.094-0.107c0.02-0.02,0.034-0.045,0.057-0.062c0.06-0.048,0.129-0.086,0.206-0.11   c1.037-0.337,2.365-0.311,3.31,0.08C54.507,20.333,54.694,20.668,54.626,21.012z M61.908,18.137   c-0.065-0.111-0.095-0.237-0.087-0.362c0.004-0.063,0.018-0.126,0.042-0.188c0.039-0.1,0.104-0.183,0.184-0.249   c0.009-0.008,0.022-0.01,0.031-0.017c0.074-0.055,0.155-0.099,0.244-0.122c0.016-0.004,0.032,0,0.048-0.003   c0.085-0.016,0.17-0.023,0.254-0.007c0.034,0.006,0.061,0.028,0.094,0.04c0.057,0.021,0.116,0.032,0.166,0.071   c0.003-0.005,0.009-0.007,0.013-0.011c0.058-0.081,0.133-0.147,0.219-0.198c0.019-0.011,0.037-0.019,0.057-0.029   c0.093-0.044,0.191-0.076,0.296-0.076c0.082,0,0.25,0.042,0.322,0.081c0.736,0.382,1.389,0.465,2.237,0.343   c0.427-0.051,0.834,0.249,0.896,0.657c0.059,0.374-0.158,0.718-0.528,0.836c-0.054,0.017-0.108,0.032-0.162,0.045   c0.017,0.069,0.023,0.142,0.018,0.217c-0.025,0.367-0.312,0.651-0.667,0.661c-0.005,0-0.009,0-0.014,0   c-1.181,0-2.472-0.56-3.541-1.537C61.982,18.244,61.941,18.192,61.908,18.137z"></path><path fill="none" d="M60.664,18.191c0.271,0.488,0.641,0.901,1.12,1.246c0.161,0.116,0.333,0.224,0.518,0.325   c-0.408-0.267-0.783-0.573-1.107-0.911C60.996,18.643,60.812,18.426,60.664,18.191z"></path><path fill="none" d="M36.162,14.058c0.146-0.086,0.3-0.16,0.462-0.221c0.145-0.055,0.294-0.102,0.447-0.134   c-0.323,0.054-0.626,0.17-0.905,0.348c-0.012,0.008-0.022,0.014-0.033,0.022C36.142,14.066,36.153,14.063,36.162,14.058z"></path><path fill="none" d="M64.191,12.795c-0.058,0-0.116,0.008-0.175,0.01c0.212-0.009,0.417-0.007,0.609,0.014   C64.463,12.801,64.315,12.795,64.191,12.795z"></path><path fill="none" d="M63.896,12.813c-0.534,0.039-1.067,0.177-1.527,0.411c-0.536,0.274-1.031,0.705-1.409,1.23   C61.655,13.514,62.746,12.901,63.896,12.813z"></path><path fill="none" d="M66.768,14.308c-0.067-0.195-0.162-0.379-0.284-0.531c-0.21-0.264-0.459-0.443-0.714-0.586   C66.066,13.381,66.504,13.803,66.768,14.308z"></path><path fill="none" d="M62.892,23.947c0.066,0.115,0.131,0.232,0.194,0.352c0.02,0.039,0.039,0.08,0.058,0.12   c0.046,0.095,0.088,0.195,0.127,0.299c0.012,0.032,0.028,0.059,0.039,0.091c-0.074-0.412-0.245-0.754-0.491-0.996   C62.844,23.858,62.868,23.904,62.892,23.947z"></path><path fill="none" d="M62.035,24.44c-0.037-0.063-0.073-0.127-0.109-0.192c-4.844,0.122-9.761,0.183-14.518,0.24l-3.6,0.045   c-0.524,0.007-1.143,0.067-1.798,0.129c-1.462,0.139-3.034,0.235-3.974-0.032c-0.095,0.323-0.167,0.644-0.178,0.99   c-0.008,0.208,0.011,0.411,0.043,0.613c0,0.001,0,0.002,0.001,0.003c0.007-0.012,0.022-0.016,0.03-0.027   c0.11-0.155,0.283-0.261,0.49-0.261c0.007,0,0.014,0,0.021,0.001c0.001,0,0.001-0.001,0.002-0.001   c0.344,0.014,0.689,0.02,1.034,0.027c0.812,0.015,1.652,0.033,2.477,0.13c0.091,0.011,0.175,0.04,0.251,0.081   c0.026,0.014,0.046,0.036,0.07,0.053c0.046,0.033,0.092,0.064,0.129,0.107c0.022,0.025,0.036,0.056,0.054,0.084   c0.029,0.044,0.057,0.086,0.076,0.136c0.012,0.033,0.016,0.067,0.023,0.101c0.009,0.039,0.025,0.075,0.027,0.116   c0.02-0.001,0.042-0.001,0.063-0.001c0.582-0.016,1.183-0.028,1.806-0.036c0.05-0.001,0.102-0.001,0.153-0.002   c0.634-0.008,1.285-0.012,1.967-0.012c1.862,0,3.727,0.027,5.593,0.053c1.859,0.026,3.717,0.052,5.572,0.052   c1.684,0,3.178-0.022,4.557-0.068c0.156-0.437,0.207-0.864,0.154-1.301C62.405,25.083,62.241,24.799,62.035,24.44z M43.484,26.229   c-0.138,0.165-0.336,0.257-0.558,0.257c-0.272,0-0.495-0.221-0.495-0.495c0-0.094,0.026-0.181,0.071-0.255   c-0.042-0.072-0.066-0.156-0.066-0.246c0-0.273,0.221-0.495,0.495-0.495c0.407,0,0.726,0.326,0.726,0.743   C43.658,25.92,43.596,26.094,43.484,26.229z"></path><path fill="none" d="M48.177,83.93c-0.041,0-0.082-0.001-0.123-0.001c-0.903,0-1.778,0.004-2.634,0.011   c-0.306,0.003-0.596,0.008-0.896,0.011c-0.541,0.006-1.083,0.012-1.608,0.021c-0.321,0.006-0.629,0.014-0.944,0.021   c-0.498,0.011-0.996,0.021-1.48,0.035c-0.267,0.007-0.525,0.017-0.788,0.025c-0.377,0.012-0.749,0.025-1.119,0.039   c0.066,0.002,0.131,0.005,0.197,0.007c0.54,0.02,1.088,0.037,1.645,0.053c0.146,0.004,0.29,0.009,0.437,0.013   c0.66,0.017,1.334,0.032,2.018,0.044c0.21,0.004,0.424,0.006,0.636,0.01c0.522,0.008,1.051,0.015,1.589,0.02   c0.226,0.002,0.452,0.004,0.681,0.006c0.737,0.005,1.484,0.009,2.251,0.009c0.001,0,0.002,0,0.003,0   c4.335,0,8.734-0.081,12.988-0.16l0.011,0l0.04-0.001c-2.115-0.04-4.264-0.081-6.428-0.111C52.502,83.95,50.337,83.93,48.177,83.93   z"></path><path d="M63.866,21.391c0.009,0.002,0.016,0.004,0.024,0.006c0.107,0.119,0.248,0.209,0.413,0.262   c0.648,0.206,1.308,0.31,1.964,0.31c3.397,0,6.374-2.869,6.775-6.53c0.5-4.548-2.005-8.038-6.551-9.16   C66.34,6.056,66.09,5.91,65.798,5.893C58.952,5.577,51.978,5.36,45.07,5.25c-0.838-0.014-1.741-0.063-2.682-0.114   C41.148,5.07,39.864,5,38.565,5c-2.752,0-6.234,0.27-8.76,2.379c-2.711,2.257-3.626,6.031-2.33,9.612   c1.363,3.765,4.71,5.857,8.371,5.142c0.201,0.016,0.4,0.021,0.601,0.013c-0.078,0.579-0.011,1.072,0.202,1.473   c-0.779,1.261-0.943,3.263,0.065,4.531c0.207,0.266,0.537,0.369,0.842,0.265c0.069,0.012,0.137,0.022,0.206,0.032   c-0.541,5.909-0.499,11.989-0.459,17.873c0.022,3.161,0.044,6.431-0.025,9.612c-0.232,10.639-0.456,19.318-0.701,27.258   c-0.684,0.031-1.371,0.063-2.053,0.102c-0.158,0.01-0.302,0.06-0.423,0.147c-0.292,0.068-0.526,0.269-0.636,0.554   c-0.475,1.183-0.981,2.356-1.488,3.527l-0.299,0.699c-0.299-0.196-0.705-0.179-0.994,0.055c-0.152,0.038-0.285,0.119-0.386,0.238   c-0.092,0.107-0.151,0.24-0.173,0.38c-0.88,1.121-1.532,2.804-1.677,4.365c-0.004,0.071,0.001,0.139,0.014,0.205   c-0.017,0.056-0.028,0.116-0.03,0.179c-0.009,0.302,0.194,0.565,0.482,0.625C31.313,94.765,34.006,95,37.389,95   c2.226,0,4.482-0.101,6.664-0.199c1.601-0.071,3.18-0.142,4.709-0.172c6.467-0.126,13.797-0.269,20.926-0.853   c0.175-0.015,0.335-0.075,0.472-0.174c0.234-0.042,0.446-0.183,0.578-0.385c0.162-0.251,0.182-0.557,0.051-0.847   c-0.579-1.239-1.368-2.562-2.282-3.831c-0.099-0.411-0.445-0.688-0.929-0.688c-0.001,0-0.003,0-0.004,0   c-0.239,0.014-0.477,0.025-0.716,0.036c-0.256-1.044-0.671-2.186-1.263-3.471c0.079-0.222,0.076-0.474-0.019-0.699   c-0.106-0.251-0.314-0.432-0.601-0.506c-0.228-0.24-0.636-0.257-0.9-0.053l-1.514-0.025c0.07-5.914-0.019-11.918-0.105-17.732   c-0.045-3.123-0.092-6.245-0.115-9.365c-0.019-2.865,0.001-5.737,0.022-8.612c0.043-6.132,0.089-12.467-0.269-18.676   c0.146-0.008,0.292-0.015,0.439-0.021c0.279-0.014,0.526-0.136,0.696-0.342c0.123-0.149,0.199-0.332,0.223-0.527   c0.57-0.644,0.909-1.632,0.89-2.622c-0.015-0.79-0.259-1.485-0.693-1.987c-0.001-0.11-0.019-0.218-0.054-0.321l0.214-1.22   C63.829,21.606,63.849,21.5,63.866,21.391z M38.565,5.989c0.83,0,1.658,0.029,2.474,0.068c-0.688-0.005-1.376-0.009-2.066-0.012   h-0.149c-0.292,0-0.593,0.005-0.897,0.013c-0.097,0.003-0.195,0.008-0.293,0.011c-0.215,0.008-0.43,0.018-0.648,0.032   c-0.117,0.007-0.234,0.016-0.352,0.025c-0.212,0.016-0.425,0.037-0.639,0.06c-0.114,0.012-0.227,0.024-0.341,0.038   c-0.259,0.033-0.518,0.073-0.777,0.118c-0.066,0.011-0.132,0.02-0.197,0.032c-0.317,0.059-0.632,0.131-0.943,0.212   c-0.093,0.024-0.184,0.054-0.276,0.081c-0.222,0.063-0.441,0.131-0.658,0.208c-0.11,0.039-0.217,0.081-0.325,0.123   c-0.202,0.079-0.399,0.165-0.595,0.257c-0.101,0.048-0.202,0.095-0.301,0.146c-0.221,0.115-0.435,0.242-0.644,0.376   c-0.051,0.033-0.106,0.057-0.156,0.091C32.537,6.571,34.965,5.989,38.565,5.989z M29.507,18.713   c0.038,0.038,0.086,0.069,0.125,0.106c0.253,0.245,0.524,0.477,0.816,0.692c0.049,0.036,0.093,0.075,0.143,0.11   c0.336,0.236,0.697,0.449,1.077,0.644c0.085,0.044,0.172,0.084,0.259,0.126c0.362,0.173,0.737,0.33,1.13,0.465   c0.041,0.014,0.08,0.032,0.121,0.045c0.428,0.14,0.876,0.251,1.335,0.343c0.05,0.01,0.095,0.028,0.146,0.038   C32.351,21.371,30.616,20.211,29.507,18.713z M37.733,23.492c-0.004,0-0.007-0.002-0.01-0.002h-0.001   c-0.018-0.068-0.052-0.131-0.099-0.187c-0.151-0.177-0.223-0.423-0.219-0.739c0.025,0.04,0.06,0.074,0.088,0.112   c0.048,0.065,0.092,0.132,0.15,0.192c0.007,0.007,0.017,0.011,0.024,0.018c0.139,0.141,0.308,0.265,0.5,0.374   c0.066,0.037,0.146,0.066,0.218,0.099c0.151,0.07,0.31,0.136,0.489,0.19c0.098,0.029,0.206,0.053,0.312,0.078   c0.183,0.042,0.377,0.078,0.585,0.106c0.125,0.017,0.253,0.032,0.387,0.044c0.064,0.006,0.118,0.016,0.183,0.021   c-0.157,0.008-0.315,0.017-0.467,0.02c-0.569,0.008-1.071-0.025-1.457-0.114c-0.016-0.004-0.034-0.007-0.05-0.011   c-0.16-0.04-0.302-0.088-0.419-0.148C37.879,23.51,37.806,23.494,37.733,23.492z M48.743,93.64c-1.538,0.03-3.124,0.1-4.734,0.173   c-2.171,0.098-4.417,0.198-6.621,0.198c-2.049,0-3.835-0.088-5.452-0.269c0.131-0.006,0.265-0.012,0.401-0.017   c0.17-0.006,0.334-0.013,0.513-0.017c0.069-0.002,0.145-0.001,0.215-0.003c0.427-0.007,0.873-0.008,1.329-0.005   c0.589,0.004,1.178,0.011,1.766,0.021c0.741,0.014,1.478,0.026,2.209,0.026h0.239c3.368-0.012,6.785-0.048,10.156-0.11   c4.054-0.075,8.168-0.245,12.148-0.41c1.845-0.076,3.691-0.141,5.536-0.208C60.366,93.412,54.242,93.534,48.743,93.64z    M67.403,89.762c0.338,0.751,0.711,1.483,1.115,2.184c-2.201,0.071-4.401,0.159-6.602,0.25c0.014-0.06,0.022-0.123,0.02-0.186   c-0.001-0.006-0.001-0.011-0.001-0.016c0.204-0.008,0.409-0.018,0.613-0.035c0.405-0.034,0.697-0.368,0.68-0.777   c-0.016-0.393-0.324-0.689-0.729-0.689c0,0,0,0-0.001,0c-0.4,0.007-0.797,0.012-1.194,0.012c-0.052,0-0.098-0.001-0.149-0.001   c-0.563-0.002-1.087-0.012-1.583-0.034c-0.532-0.024-1.03-0.06-1.511-0.109c-0.004,0-0.007,0.002-0.011,0.001   c-0.017-0.002-0.034-0.003-0.051-0.004c-0.065,0-0.125,0.018-0.184,0.036c-0.005,0.002-0.012,0.001-0.017,0.003   c-0.159,0.054-0.291,0.166-0.37,0.319c-0.001,0.002-0.003,0.004-0.004,0.006c-0.039,0.077-0.065,0.162-0.074,0.254   c-0.01,0.114,0.014,0.218,0.052,0.315c0.01,0.026,0.022,0.048,0.035,0.073c0.042,0.077,0.097,0.143,0.166,0.197   c0.01,0.008,0.013,0.021,0.024,0.028l-0.862,0.056c-0.349,0.022-0.612,0.313-0.602,0.664c0.001,0.04,0.006,0.078,0.014,0.115   c-0.106,0.004-0.21,0.008-0.316,0.012c-2.369,0.089-4.754,0.167-7.117,0.212c-3.366,0.062-6.778,0.099-10.141,0.11h-0.235   c-0.724,0-1.456-0.013-2.191-0.026c-0.746-0.014-1.495-0.027-2.243-0.027c-1.43,0-2.589,0.052-3.637,0.166   c0.192-0.55,0.375-1.068,0.609-1.571c0.152-0.327,0.335-0.636,0.518-0.946c0.088-0.149,0.176-0.297,0.261-0.447   c4.474,0.405,9.232,0.602,14.536,0.602c0.001,0,0,0,0.001,0c1.809,0,3.616-0.023,5.415-0.063   C57.033,90.325,62.348,90.047,67.403,89.762z M35.761,89.215c0.335-0.001,0.671-0.003,1.006-0.003   c2.178-0.002,4.357,0.002,6.534,0.01c1.99,0.008,3.978,0.014,5.968,0.014c0.796,0,1.624-0.002,2.466-0.005   c0.221-0.001,0.44-0.002,0.665-0.003c0.881-0.004,1.777-0.01,2.697-0.019c0.052-0.001,0.105-0.001,0.156-0.002   c0.862-0.009,1.742-0.022,2.631-0.038c0.227-0.004,0.452-0.008,0.68-0.013c0.907-0.018,1.821-0.038,2.747-0.065   c-1.299,0.064-2.604,0.126-3.922,0.179c-0.322,0.013-0.646,0.023-0.969,0.035c-1.301,0.049-2.61,0.09-3.924,0.124   c-0.453,0.012-0.905,0.023-1.359,0.032c-1.633,0.034-3.272,0.058-4.912,0.058c-0.001,0-0.002,0-0.004,0   c-1.206,0-2.374-0.014-3.526-0.035c-0.31-0.005-0.616-0.013-0.922-0.02c-0.949-0.022-1.883-0.051-2.8-0.087   c-0.205-0.008-0.415-0.014-0.618-0.023C37.474,89.318,36.616,89.267,35.761,89.215z M64.05,85.026   c0.248,1.089,0.547,2.077,0.889,2.948c-5.583,0.24-11.038,0.273-15.67,0.273c-1.988,0-3.976-0.007-5.965-0.014   c-1.445-0.005-2.89-0.01-4.336-0.013c0.03-0.036,0.048-0.08,0.07-0.121c0.014-0.026,0.033-0.048,0.044-0.076   c0.031-0.08,0.05-0.167,0.05-0.261c0-0.097-0.019-0.19-0.053-0.273c-0.005-0.011-0.014-0.019-0.02-0.031   c-0.033-0.07-0.073-0.137-0.126-0.192c0,0,0-0.001-0.001-0.001c0.001-0.001,0.002-0.002,0.003-0.003   c0.134-0.134,0.211-0.324,0.211-0.521c0-0.405-0.314-0.722-0.713-0.722c-0.273,0-0.495,0.221-0.495,0.494   c0,0.082,0.02,0.16,0.055,0.229c-0.036,0.069-0.056,0.147-0.056,0.23c0,0.021,0.001,0.042,0.004,0.063   c-0.261-0.007-0.523-0.003-0.785-0.003c-0.159,0-0.317-0.004-0.476-0.002c-0.484,0.006-0.969,0.019-1.453,0.033   c-0.379,0.011-0.755,0.021-1.127,0.028c0.03-0.062,0.053-0.132,0.083-0.194c0.306-0.636,0.594-1.292,0.845-1.982   c0.967,0.055,1.958,0.103,2.978,0.143c3.059,0.122,6.372,0.182,10.035,0.182c0,0,0,0,0,0c0,0,0,0,0.001,0   c4.342,0,8.747-0.082,13.007-0.161l0.256-0.005c0.245,0.111,0.544,0.103,0.776-0.016L64.05,85.026z M39.508,33.415   c-0.041-1.59-0.115-3.175-0.233-4.748c2.844,0.382,5.994,0.567,9.602,0.567c3.716,0,7.458-0.193,11.078-0.38l0.516-0.026   c-0.332,6.433-0.212,12.998-0.097,19.351c0.048,2.626,0.096,5.248,0.113,7.862c0.017,2.562,0.021,5.127,0.026,7.692   c0.011,6.35,0.021,12.91,0.239,19.363c-4.154-0.078-8.437-0.156-12.698-0.156c0,0,0,0-0.001,0c0,0,0,0,0,0   c-2.646,0-5.081,0.03-7.372,0.092c-0.764,0.021-1.511,0.045-2.245,0.072c0.297-10.305,0.495-18.948,0.621-27.156   c0.038-2.611,0.132-5.29,0.224-7.893c0.004-0.113,0.008-0.23,0.012-0.343c0.14-3.921,0.283-7.922,0.255-11.907   C39.542,35.007,39.529,34.21,39.508,33.415z M61.372,84.077c0.117-0.022,0.217-0.08,0.29-0.169   c0.054,0.074,0.126,0.134,0.212,0.169c-0.02,0.003-0.03,0.012-0.042,0.019c-0.006,0.004-0.02,0.007-0.025,0.011   c-0.02,0.017-0.041,0.042-0.08,0.077c-0.085-0.064-0.189-0.099-0.297-0.099c-0.003,0-0.006,0-0.01,0l-0.065,0.001   C61.361,84.085,61.366,84.078,61.372,84.077z M61.292,43.857c-0.006-0.404-0.01-0.81-0.015-1.215   c-0.014-1.145-0.022-2.294-0.026-3.444c-0.001-0.45-0.003-0.9-0.002-1.35c0.002-1.48,0.015-2.961,0.048-4.438   c0.001-0.045,0.001-0.09,0.002-0.135c0-0.002,0-0.005,0-0.007c0.142,4.733,0.108,9.5,0.075,14.15   c-0.003,0.303-0.005,0.607-0.007,0.911c-0.001-0.055-0.002-0.11-0.003-0.165C61.338,46.737,61.313,45.299,61.292,43.857z    M61.266,27.892c-0.019-0.012-0.04-0.018-0.06-0.028c-0.021-0.011-0.039-0.021-0.06-0.028c-0.055-0.018-0.113-0.029-0.177-0.024   l-1.066,0.054c-3.606,0.186-7.335,0.379-11.026,0.379c-0.871,0-1.707-0.014-2.525-0.036c-0.254-0.007-0.499-0.018-0.748-0.027   c-0.567-0.02-1.124-0.045-1.668-0.077c-0.262-0.015-0.523-0.031-0.78-0.049c-0.555-0.039-1.097-0.084-1.63-0.135   c-0.196-0.019-0.396-0.035-0.589-0.055c-0.068-0.007-0.131-0.017-0.199-0.025c0.399-0.018,0.808-0.034,1.226-0.048   c0.097-0.003,0.198-0.006,0.296-0.009c0.335-0.01,0.676-0.019,1.024-0.027c0.131-0.003,0.264-0.006,0.397-0.008   c0.332-0.006,0.673-0.011,1.018-0.015c0.138-0.002,0.274-0.004,0.415-0.005c0.475-0.004,0.959-0.007,1.46-0.007   c1.857,0,3.717,0.027,5.578,0.053c0.001,0,0.002,0,0.003,0c1.622,0.023,3.278,0.041,4.874,0.045   c0.236,0.001,0.474,0.007,0.71,0.007c1.37,0,2.612-0.015,3.783-0.039C61.429,27.799,61.339,27.834,61.266,27.892z M61.082,84.092   l-0.04,0.001l-0.011,0c-4.254,0.079-8.654,0.16-12.988,0.16c-0.001,0-0.002,0-0.003,0c-0.767,0-1.514-0.004-2.251-0.009   c-0.229-0.002-0.455-0.004-0.681-0.006c-0.537-0.005-1.066-0.012-1.589-0.02c-0.212-0.003-0.427-0.006-0.636-0.01   c-0.685-0.012-1.358-0.027-2.018-0.044c-0.148-0.004-0.291-0.009-0.437-0.013c-0.556-0.016-1.105-0.033-1.645-0.053   c-0.066-0.002-0.131-0.005-0.197-0.007c0.369-0.014,0.742-0.027,1.119-0.039c0.263-0.008,0.521-0.018,0.788-0.025   c0.484-0.014,0.983-0.024,1.48-0.035c0.315-0.007,0.623-0.015,0.944-0.021c0.524-0.009,1.067-0.015,1.608-0.021   c0.3-0.003,0.591-0.009,0.896-0.011c0.856-0.007,1.731-0.011,2.634-0.011c0.041,0,0.082,0.001,0.123,0.001   c2.16,0.001,4.325,0.021,6.477,0.051C56.817,84.011,58.967,84.052,61.082,84.092z M38.535,39.625   c-0.003,0.175-0.004,0.35-0.007,0.525c-0.021,1.137-0.051,2.272-0.085,3.404c-0.009,0.308-0.019,0.617-0.029,0.924   c-0.035,1.069-0.071,2.137-0.109,3.197c-0.001,0.026-0.002,0.052-0.003,0.078c-0.003-0.483-0.006-0.963-0.01-1.442   c-0.032-4.614-0.063-9.347,0.186-14.012c0.003,0.069,0.006,0.138,0.009,0.207c0.039,1.121,0.061,2.245,0.069,3.372   c0.002,0.235,0,0.471,0.001,0.707C38.558,37.598,38.551,38.612,38.535,39.625z M62.297,26.771   c-1.379,0.045-2.872,0.068-4.557,0.068c-1.854,0-3.713-0.026-5.572-0.052c-1.866-0.026-3.731-0.053-5.593-0.053   c-0.682,0-1.333,0.005-1.967,0.012c-0.05,0.001-0.102,0.001-0.153,0.002c-0.623,0.008-1.224,0.02-1.806,0.036   c-0.02,0.001-0.042,0.001-0.063,0.001c-0.002-0.041-0.018-0.077-0.027-0.116c-0.008-0.034-0.011-0.069-0.023-0.101   c-0.019-0.049-0.047-0.092-0.076-0.136c-0.018-0.028-0.032-0.058-0.054-0.084c-0.037-0.042-0.083-0.074-0.129-0.107   c-0.024-0.017-0.043-0.039-0.07-0.053c-0.076-0.041-0.161-0.07-0.251-0.081c-0.826-0.098-1.665-0.115-2.477-0.13   c-0.346-0.007-0.691-0.014-1.034-0.027c-0.001,0-0.001,0-0.002,0.001c-0.007,0-0.014,0-0.021-0.001c-0.207,0-0.38,0.105-0.49,0.261   c-0.008,0.011-0.023,0.015-0.03,0.027c0-0.001,0-0.002-0.001-0.003c-0.033-0.202-0.051-0.404-0.043-0.613   c0.011-0.346,0.083-0.667,0.178-0.99c0.941,0.267,2.512,0.171,3.974,0.032c0.656-0.063,1.274-0.123,1.798-0.129l3.6-0.045   c4.758-0.058,9.675-0.119,14.518-0.24c0.036,0.065,0.072,0.129,0.109,0.192c0.207,0.358,0.37,0.642,0.415,1.03   C62.503,25.906,62.453,26.334,62.297,26.771z M63.272,24.719c-0.039-0.104-0.081-0.204-0.127-0.299   c-0.02-0.04-0.038-0.081-0.058-0.12c-0.063-0.12-0.128-0.238-0.194-0.352c-0.025-0.042-0.048-0.089-0.073-0.132   c0.246,0.242,0.417,0.583,0.491,0.996C63.3,24.778,63.284,24.751,63.272,24.719z M61.28,17.206   c-0.205-0.597-0.103-1.224,0.311-1.917c0.514-0.862,1.44-1.436,2.411-1.498l0.186-0.005c0.41,0,0.761,0.072,1.024,0.213   c0.069,0.036,0.155,0.106,0.245,0.195c0.269,0.268,0.571,0.709,0.541,0.923c-0.006,0.041-0.114,0.09-0.259,0.119   c-0.482,0.098-0.785,0.501-0.737,0.982c0.053,0.525,0.483,0.922,1.001,0.922c0.026,0,0.136-0.009,0.162-0.013   c0.728-0.115,1.274-0.553,1.539-1.233c0.334-0.862,0.151-1.986-0.446-2.734c-0.695-0.873-1.785-1.354-3.067-1.354   c-0.783,0-1.589,0.19-2.271,0.536c-2.156,1.104-3.213,3.612-2.409,5.711c0.454,1.181,1.315,2.089,2.564,2.704   c-0.04,0.269-0.039,0.535-0.038,0.779l-0.011,0.764c-2.905,0.03-5.809,0.096-8.715,0.161l-8.927,0.189   c-0.24,0.005-0.58,0.033-0.983,0.066c-0.646,0.053-1.45,0.12-2.246,0.12c-0.361,0-0.691-0.014-0.989-0.041   c-0.894-0.082-1.502-0.287-1.812-0.613c-0.107-0.111-0.178-0.238-0.214-0.386c1.615-0.603,2.934-1.928,3.421-3.467   c0.442-1.4,0.157-2.834-0.802-4.036c-1.233-1.546-3.567-2.073-5.129-1.076c-0.778,0.5-1.27,1.265-1.347,2.099   c-0.076,0.825,0.257,1.652,0.918,2.274c0.362,0.334,0.966,0.212,1.173-0.215c0.127-0.263,0.091-0.571-0.093-0.802   c-0.074-0.094-0.134-0.188-0.18-0.28c-0.136-0.277-0.143-0.545-0.019-0.799c0.238-0.488,0.934-0.84,1.588-0.862   c0.218-0.007,0.431,0.022,0.621,0.095c0.96,0.37,1.605,1.371,1.569,2.435c-0.104,2.89-3.466,3.195-4.482,3.219   c-0.015,0-0.045,0.003-0.076,0.007c-0.315-0.046-0.623-0.104-0.924-0.174c-0.097-0.023-0.189-0.054-0.284-0.079   c-0.2-0.052-0.401-0.103-0.593-0.166c-0.11-0.036-0.213-0.08-0.32-0.119c-0.17-0.062-0.343-0.122-0.506-0.192   c-0.109-0.047-0.21-0.102-0.315-0.152c-0.152-0.073-0.307-0.143-0.452-0.222c-0.009-0.005-0.017-0.011-0.026-0.016   c0.004-0.001,0.007-0.005,0.011-0.006c0.092-0.024,0.175-0.068,0.25-0.126c0.016-0.013,0.03-0.026,0.046-0.04   c0.072-0.066,0.136-0.142,0.178-0.235c0-0.002,0.001-0.003,0.002-0.004c0.075,0.02,0.158,0.029,0.238,0.041   c0.032,0.004,0.058,0.02,0.09,0.022c0.011,0.001,0.04,0.002,0.05,0.002c0.344,0,0.635-0.231,0.723-0.575   c0.09-0.348-0.059-0.706-0.355-0.869c-0.116-0.067-0.232-0.127-0.345-0.184c-0.292-0.15-0.522-0.268-0.705-0.478   c-0.233-0.275-0.455-0.686-0.547-1.006c-0.068-0.27-0.299-0.452-0.577-0.452c-0.181,0-0.338,0.085-0.452,0.226   c-0.022,0.025-0.037,0.057-0.055,0.086c-0.018,0.031-0.039,0.056-0.052,0.091c-0.001,0.002-0.003,0.004-0.003,0.006   c-0.134-0.269-0.252-0.54-0.34-0.806c-0.063-0.209-0.33-0.411-0.55-0.411c-0.172,0-0.334,0.075-0.445,0.208   c-0.093,0.11-0.15,0.326-0.127,0.469c0.05,0.309,0.132,0.637,0.235,0.967c0.009,0.029,0.015,0.055,0.024,0.084   c0.103,0.315,0.236,0.63,0.39,0.936c0.013,0.027,0.02,0.055,0.034,0.081c-0.005-0.007-0.011-0.013-0.016-0.02   c-0.909-1.286-1.191-2.811-0.839-4.533c0.807-3.948,3.916-5.708,10.079-5.708h0.145c2.136,0.007,4.265,0.031,6.39,0.065   c-0.002,0.041,0.011,0.078,0.017,0.117c0.005,0.036,0.004,0.074,0.016,0.108c0.015,0.044,0.041,0.081,0.065,0.121   c0.016,0.027,0.026,0.058,0.046,0.082c0.035,0.042,0.081,0.074,0.126,0.106c0.019,0.014,0.033,0.033,0.055,0.045   c0.071,0.04,0.151,0.068,0.238,0.082c0.331,0.038,0.676,0.078,1.029,0.115c-0.031,0.011-0.055,0.032-0.083,0.048   c-0.027,0.015-0.054,0.027-0.078,0.045c-0.037,0.028-0.067,0.062-0.098,0.097c-0.018,0.021-0.039,0.04-0.055,0.063   c-0.028,0.043-0.046,0.09-0.063,0.139c-0.008,0.022-0.021,0.042-0.026,0.066c-0.018,0.074-0.024,0.153-0.015,0.234   c0.041,0.343,0.317,0.592,0.66,0.592l0.998-0.002c0.825,0,1.651,0.004,2.473,0.009c0.001,0,0.002,0,0.003,0   c0.403,0,0.714-0.285,0.741-0.677c0.028-0.412-0.262-0.766-0.677-0.823c-0.092-0.012-0.185-0.022-0.279-0.032   c0.031-0.071,0.051-0.15,0.056-0.233c0.004-0.067-0.002-0.131-0.017-0.193c0.272,0.007,0.544,0.011,0.815,0.018   c1.655,0.041,3.311,0.09,4.968,0.14c0.68,0.021,1.357,0.038,2.038,0.06c2.309,0.074,4.623,0.154,6.951,0.236   c2.768,0.835,5.615,2.23,5.898,6.168c0.133,1.791-0.427,3.504-1.538,4.7c-0.926,0.997-2.126,1.524-3.47,1.524   c-0.44,0-0.897-0.058-1.29-0.151c-0.035-0.014-0.1-0.026-0.162-0.034C62.833,19.133,61.618,18.189,61.28,17.206z M62.302,19.762   c-0.185-0.101-0.358-0.209-0.518-0.325c-0.479-0.345-0.849-0.759-1.12-1.246c0.148,0.235,0.332,0.452,0.53,0.66   C61.519,19.189,61.894,19.495,62.302,19.762z M60.96,14.454c0.379-0.524,0.873-0.955,1.409-1.23   c0.46-0.234,0.993-0.372,1.527-0.411C62.746,12.901,61.655,13.514,60.96,14.454z M64.016,12.806c0.058-0.003,0.117-0.01,0.175-0.01   c0.125,0,0.272,0.006,0.435,0.024C64.432,12.799,64.228,12.797,64.016,12.806z M65.771,13.191c0.255,0.143,0.503,0.322,0.714,0.586   c0.122,0.153,0.217,0.336,0.284,0.531C66.504,13.803,66.066,13.381,65.771,13.191z M37.071,13.702   c-0.153,0.033-0.302,0.079-0.447,0.134c-0.162,0.061-0.316,0.135-0.462,0.221c-0.009,0.005-0.02,0.009-0.029,0.015   c0.011-0.008,0.021-0.014,0.033-0.022C36.445,13.872,36.748,13.756,37.071,13.702z"></path><path d="M65.586,19.826c0.355-0.01,0.642-0.294,0.667-0.661c0.005-0.075-0.001-0.149-0.018-0.217   c0.054-0.014,0.108-0.028,0.162-0.045c0.37-0.119,0.587-0.463,0.528-0.836c-0.063-0.408-0.469-0.708-0.896-0.657   c-0.848,0.122-1.501,0.04-2.237-0.343c-0.071-0.039-0.24-0.081-0.322-0.081c-0.105,0-0.203,0.032-0.296,0.076   c-0.02,0.009-0.038,0.018-0.057,0.029c-0.086,0.051-0.161,0.116-0.219,0.198c-0.003,0.005-0.009,0.007-0.013,0.011   c-0.05-0.039-0.109-0.05-0.166-0.071c-0.032-0.012-0.06-0.034-0.094-0.04c-0.085-0.016-0.17-0.009-0.254,0.007   c-0.016,0.003-0.032-0.001-0.048,0.003c-0.089,0.023-0.171,0.067-0.244,0.122c-0.01,0.007-0.022,0.009-0.031,0.017   c-0.08,0.066-0.145,0.149-0.184,0.249c-0.024,0.061-0.038,0.125-0.042,0.188c-0.009,0.126,0.021,0.252,0.087,0.362   c0.033,0.055,0.074,0.107,0.124,0.153c1.069,0.976,2.36,1.537,3.541,1.537C65.577,19.826,65.581,19.826,65.586,19.826z"></path><path d="M54.551,50.394c0.079,0.283,0.328,0.472,0.619,0.472c0.208,0,0.406-0.098,0.53-0.261c0.121-0.16,0.159-0.366,0.106-0.552   c-0.031-0.123-0.06-0.247-0.09-0.371c0.018-0.004,0.033-0.015,0.051-0.021c0.028-0.009,0.054-0.02,0.08-0.033   c0.05-0.023,0.095-0.051,0.138-0.084c0.022-0.017,0.043-0.031,0.063-0.05c0.01-0.009,0.022-0.015,0.031-0.025   c-0.016,1.674-0.022,3.327-0.023,4.954c0,3.702,0.039,7.365,0.116,10.886c0.002,0.134,0.003,0.427,0.003,0.836   c0,0.409-0.001,0.933-0.002,1.532c-0.011,5.677-0.015,8.081,0.073,9.129c-0.21,0.121-0.37,0.33-0.434,0.588   c-0.099,0.399,0.074,0.792,0.426,0.976c0.111,0.059,0.222,0.117,0.307,0.156c0.143,0.078,0.295,0.118,0.452,0.118   c0.225,0,0.447-0.085,0.631-0.246c0.557-0.502,0.643-0.751,0.812-1.397l0.026-0.1c0.346-1.325,0.133-3.123-0.053-4.708   c-0.09-0.758-0.174-1.475-0.193-2.079c-0.141-4.211-0.227-8.473-0.257-12.67c-0.035-4.794,0.04-9.67,0.112-14.385   c0.055-3.598,0.112-7.318,0.12-10.981c0-0.386-0.3-0.69-0.684-0.69c-0.373,0-0.674,0.281-0.7,0.647   c-0.149,1.731-0.261,3.462-0.357,5.189c-0.018,0.315-0.037,0.63-0.053,0.945c-0.084,1.648-0.149,3.288-0.197,4.919   c-0.01,0.336-0.017,0.667-0.026,1.001c-0.014,0.556-0.032,1.115-0.043,1.668c-0.06-0.294-0.133-0.579-0.219-0.858   c-0.171-0.544-0.959-0.673-1.306-0.24c-0.14,0.177-0.19,0.408-0.137,0.639c0.102,0.422,0.177,0.817,0.239,1.204   c0.008,0.048,0.013,0.095,0.02,0.143c-0.169-0.128-0.4-0.149-0.607-0.086c-0.016,0.004-0.03,0.008-0.045,0.013   c-0.1,0.039-0.194,0.092-0.264,0.177c-0.127,0.154-0.177,0.358-0.138,0.554c0.144,0.783,0.386,1.546,0.621,2.285   C54.385,49.859,54.472,50.13,54.551,50.394z M57.161,67.877c0.022,0.757,0.045,1.513,0.071,2.268   c0.021,0.646,0.108,1.383,0.2,2.163c0.177,1.499,0.377,3.198,0.079,4.342l-0.026,0.099c-0.095,0.359-0.13,0.498-0.252,0.649   c0.006-0.014,0.012-0.029,0.016-0.043c0.035-0.111,0.03-0.225-0.009-0.325C57.148,76.331,57.156,70.763,57.161,67.877z"></path><path d="M48.991,82.673c0.584,0.058,1.125,0.086,1.652,0.086c0.786,0,1.534-0.067,2.221-0.196c0.351-0.065,0.582-0.369,0.551-0.722   c-0.004-0.041-0.011-0.079-0.02-0.117c0.52,0.013,1.039,0.021,1.559,0.021c0.1,0,0.194-0.02,0.279-0.055   c0.256-0.107,0.432-0.359,0.432-0.66c0-0.239-0.119-0.437-0.294-0.567c-0.118-0.087-0.256-0.148-0.417-0.148   c-0.001,0-0.001,0-0.002,0c-0.898,0.004-1.798,0.032-2.699,0.059c-0.665,0.021-1.331,0.042-1.988,0.052   c-0.177,0-0.331,0.075-0.441,0.193c-0.003,0.003-0.008,0.005-0.011,0.007c-0.011,0.013-0.019,0.037-0.03,0.054   c-0.072,0.1-0.123,0.216-0.123,0.351c0,0.081,0.017,0.156,0.044,0.225c0.009,0.023,0.024,0.041,0.035,0.062   c0.018,0.034,0.033,0.071,0.058,0.101c-0.002,0-0.004,0-0.005,0c-0.24,0-0.481-0.006-0.719-0.019c-0.002,0-0.003,0.001-0.005,0.001   c-0.014-0.001-0.026-0.001-0.041-0.002c-0.038,0-0.071,0.014-0.106,0.02c-0.034,0.006-0.067,0.007-0.1,0.019   c-0.233,0.08-0.401,0.288-0.415,0.553c-0.004,0.087,0.008,0.171,0.035,0.249C48.523,82.472,48.733,82.647,48.991,82.673z"></path><path d="M54.176,20.197c-0.945-0.391-2.273-0.417-3.31-0.08c-0.077,0.025-0.146,0.063-0.206,0.11   c-0.022,0.018-0.037,0.042-0.057,0.062c-0.033,0.034-0.069,0.067-0.094,0.107c-0.017,0.028-0.025,0.06-0.038,0.091   c-0.017,0.04-0.037,0.078-0.047,0.122c-0.007,0.033-0.004,0.068-0.006,0.102c-0.003,0.039-0.012,0.077-0.007,0.117   c-0.326-0.014-0.645-0.026-0.953-0.039c-0.004,0-0.014,0-0.018,0c-0.354,0-0.633,0.267-0.648,0.62   c-0.016,0.363,0.252,0.672,0.602,0.703c0.995,0.106,2.151,0.225,3.284,0.296c0.011,0.001,0.038,0.002,0.048,0.002   c0.385,0,0.685-0.295,0.697-0.685c0.002-0.074-0.007-0.147-0.025-0.215c0.132,0.024,0.264,0.046,0.39,0.066   c0.028,0.006,0.142,0.021,0.134,0.012c0.349,0,0.638-0.238,0.705-0.577C54.694,20.668,54.507,20.333,54.176,20.197z"></path><path d="M50.774,54.309c0.004,1.288,0.003,2.583,0.001,3.879c-0.008,5.99-0.015,12.185,0.577,18.194   c0.046,0.485,0.432,0.836,0.918,0.836c0.495,0,0.871-0.378,0.877-0.874c0.071-4.225-0.08-8.522-0.225-12.678   c-0.108-3.071-0.219-6.248-0.24-9.363c-0.022-2.952,0.014-5.959,0.048-8.867c0.026-2.161,0.052-4.358,0.055-6.564   c0.003-2.206-0.018-4.42-0.085-6.613c-0.011-0.383-0.304-0.672-0.685-0.672c-0.364,0-0.664,0.274-0.7,0.64   c-0.614,6.783-0.58,13.729-0.549,20.447L50.774,54.309z M51.932,63.7c0.124,3.529,0.251,7.161,0.242,10.757   c-0.418-5.308-0.417-10.746-0.41-16.028C51.81,60.201,51.871,61.967,51.932,63.7z"></path><path d="M43.276,59.217c0.01,0.36,0.301,0.642,0.663,0.642c0.082,0,0.159-0.018,0.231-0.045c0.024-0.009,0.044-0.022,0.067-0.033   c0.027-0.014,0.056-0.023,0.08-0.04c0.011,0.301,0.024,0.601,0.03,0.907c0.014,0.328,0.281,0.585,0.61,0.585   c0.077,0,0.15-0.016,0.218-0.043c0.023-0.009,0.041-0.023,0.062-0.034c0.043-0.023,0.084-0.046,0.12-0.078   c0.021-0.018,0.037-0.039,0.055-0.06c0.029-0.034,0.056-0.069,0.077-0.109c0.014-0.026,0.024-0.052,0.034-0.079   c0.008-0.021,0.021-0.039,0.027-0.061c0,0.079,0.002,0.158,0.003,0.237c0.006,1.136,0.017,2.274,0.037,3.415   c0.003,0.151,0.007,0.302,0.01,0.453c0.021,1.039,0.051,2.077,0.092,3.115c0.008,0.194,0.013,0.388,0.022,0.582   c0.048,1.109,0.113,2.215,0.193,3.318c0.017,0.233,0.036,0.466,0.055,0.699c0.091,1.141,0.194,2.278,0.33,3.406   c0.058,0.47,0.444,0.812,0.917,0.812c0.115,0,0.226-0.023,0.328-0.064c0.038-0.015,0.067-0.043,0.103-0.063   c0.054-0.031,0.112-0.055,0.157-0.097c0.005-0.005,0.007-0.012,0.011-0.016c0.05-0.049,0.084-0.113,0.121-0.175   c0.022-0.037,0.053-0.067,0.069-0.106c0.043-0.106,0.068-0.224,0.068-0.35c0.01-3.801-0.16-7.667-0.325-11.406   c-0.152-3.451-0.309-7.02-0.324-10.523c-0.013-3.71,0.071-7.482,0.15-11.131c0.077-3.537,0.156-7.194,0.151-10.797   c0-0.381-0.296-0.678-0.672-0.678c-0.36,0-0.654,0.259-0.699,0.626c-0.775,7.359-0.822,14.895-0.805,21.984   c0.002,0.646,0.002,1.297,0.002,1.947c-0.01-0.014-0.027-0.021-0.038-0.034c-0.048-0.062-0.104-0.111-0.171-0.153   c-0.006-0.004-0.011-0.008-0.018-0.011c-0.106-0.063-0.224-0.108-0.359-0.108c-0.184,0-0.349,0.072-0.474,0.186   c-0.004,0.004-0.011,0.005-0.015,0.009c-0.002-0.002-0.005-0.003-0.006-0.004c-0.048-0.048-0.108-0.082-0.168-0.116   c-0.023-0.013-0.04-0.033-0.065-0.043c-0.089-0.037-0.187-0.059-0.291-0.059c-0.41,0-0.73,0.319-0.73,0.731   c0.01,0.745,0.03,1.486,0.05,2.23L43.276,59.217z M46.752,64.571c0.136,3.077,0.275,6.24,0.314,9.377   c-0.464-4.855-0.523-9.845-0.531-14.739C46.596,61.011,46.675,62.807,46.752,64.571z"></path><path d="M42.932,24.996c-0.273,0-0.495,0.221-0.495,0.495c0,0.09,0.024,0.174,0.066,0.246c-0.045,0.074-0.071,0.161-0.071,0.255   c0,0.273,0.222,0.495,0.495,0.495c0.222,0,0.42-0.092,0.558-0.257c0.112-0.135,0.174-0.309,0.174-0.491   C43.658,25.322,43.338,24.996,42.932,24.996z"></path><path d="M42.07,78.433c0.282,0,0.549-0.129,0.714-0.346c0.16-0.211,0.211-0.486,0.137-0.752c-0.829-3.123-0.739-6.438-0.653-9.645   c0.02-0.758,0.042-1.514,0.05-2.269c0.043-3.857,0.08-7.72,0.099-11.583c0.018-3.338,0.12-6.739,0.218-10.028   c0.123-4.125,0.25-8.391,0.216-12.579c0-0.362-0.282-0.646-0.641-0.646c-0.341,0-0.619,0.245-0.663,0.582   c-0.73,5.653-0.763,11.534-0.795,17.222c-0.013,2.231-0.025,4.453-0.078,6.653c-0.098,4.065-0.189,8.13-0.257,12.196   c-0.009,0.484-0.021,0.969-0.034,1.456c-0.081,3.034-0.164,6.17,0.845,9.142C41.358,78.197,41.689,78.433,42.07,78.433z"></path></g></svg></g></g></svg>