<?xml version="1.0" encoding="UTF-8" standalone="no"?>
<!-- Created with Inkscape (http://www.inkscape.org/) -->

<svg
   xmlns:dc="http://purl.org/dc/elements/1.1/"
   xmlns:cc="http://creativecommons.org/ns#"
   xmlns:rdf="http://www.w3.org/1999/02/22-rdf-syntax-ns#"
   xmlns:svg="http://www.w3.org/2000/svg"
   xmlns="http://www.w3.org/2000/svg"
   xmlns:sodipodi="http://sodipodi.sourceforge.net/DTD/sodipodi-0.dtd"
   xmlns:inkscape="http://www.inkscape.org/namespaces/inkscape"
   width="210mm"
   height="297mm"
   viewBox="0 0 210 297"
   version="1.1"
   id="svg904"
   inkscape:version="0.92.3 (2405546, 2018-03-11)"
   sodipodi:docname="logo Adri final.svg">
  <defs
     id="defs898" />
  <sodipodi:namedview
     id="base"
     pagecolor="#ffffff"
     bordercolor="#666666"
     borderopacity="1.0"
     inkscape:pageopacity="0.0"
     inkscape:pageshadow="2"
     inkscape:zoom="0.49497475"
     inkscape:cx="866.99174"
     inkscape:cy="609.85232"
     inkscape:document-units="mm"
     inkscape:current-layer="layer1"
     showgrid="false"
     inkscape:window-width="1920"
     inkscape:window-height="1017"
     inkscape:window-x="-8"
     inkscape:window-y="-8"
     inkscape:window-maximized="1" />
  <metadata
     id="metadata901">
    <rdf:RDF>
      <cc:Work
         rdf:about="">
        <dc:format>image/svg+xml</dc:format>
        <dc:type
           rdf:resource="http://purl.org/dc/dcmitype/StillImage" />
        <dc:title></dc:title>
      </cc:Work>
    </rdf:RDF>
  </metadata>
  <g
     inkscape:label="Capa 1"
     inkscape:groupmode="layer"
     id="layer1">
    <g
       transform="matrix(0.28437355,0,0,0.28437355,211.0211,150.35921)"
       id="g877">
      <g
         transform="matrix(0.99871595,0,0,0.99796932,-0.44971697,0.474065)"
         id="g5733">
        <path
           inkscape:connector-curvature="0"
           style="fill:#000000;stroke-width:3.39222646"
           d="m -1447.834,143.66992 -28.9433,0.125 -22.5801,15.98828 c -25.4674,18.03171 -41.3914,39.19505 -60.5274,80.44141 -17.2816,37.24948 -22.4101,54.51201 -30.2363,101.76562 -3.7081,22.38868 -9.1086,47.38689 -12,55.55079 -2.8913,8.16389 -5.2559,25.09402 -5.2559,37.62304 0,31.07868 -5.9844,48.58435 -29.0488,84.9668 -17.4366,27.50536 -25.1515,35.60733 -67.8457,71.25391 -26.4942,22.12074 -53.8418,47.13897 -60.7715,55.5957 -25.0851,30.61311 -39.4142,97.48279 -45.9843,214.58008 -1.7969,32.02499 -6.202,76.29398 -9.7872,98.375 -3.5851,22.08102 -7.5575,50.76205 -8.8281,63.73635 -1.2705,12.9743 -5.1716,34.3463 -8.6699,47.4922 -3.4983,13.1459 -6.4339,33.8239 -6.5234,45.9511 -0.09,12.1273 -1.6559,28.5183 -3.4805,36.4258 -3.1798,13.7806 -7.0955,36.7005 -13.7695,80.6055 -2.0703,13.6194 -1.7891,28.9361 0.8496,46.2949 3.3723,22.1852 3.1184,29.063 -1.7598,47.4922 -3.1373,11.8523 -7.9464,30.3112 -10.6855,41.0215 -2.7392,10.7102 -8.0534,28.5987 -11.8106,39.7519 -3.7572,11.1532 -6.832,25.8311 -6.832,32.6172 0,6.786 -2.1003,20.9536 -4.668,31.4844 -2.5677,10.5307 -6.4821,30.5949 -8.6973,44.5879 -0.6235,3.9388 -1.3861,8.6793 -2.1093,13.2012 a 1612.4914,1612.4914 0 0 0 526.8945,90.4062 1612.4914,1612.4914 0 0 0 551.98828,-98.8496 c -1.19449,-2.7115 -2.26492,-5.002 -3.08007,-6.4531 -14.18729,-25.2557 -37.73211,-102.1305 -54.50391,-177.959 -4.35001,-19.6671 -12.48674,-47.2818 -18.08203,-61.3672 -18.56859,-46.7436 -35.05433,-110.8282 -38.29883,-148.873 -3.38589,-39.7025 -18.01544,-155.81221 -23.96094,-190.17583 -5.63607,-32.57529 -37.0951,-126.57468 -52.791,-157.73828 -7.5176,-14.92577 -18.3762,-44.10984 -24.1309,-64.85351 -7.9514,-28.66213 -15.8146,-47.09269 -32.7558,-76.78126 -20.8929,-36.6136 -24.7877,-41.25281 -62.0176,-73.8789 -52.325,-45.8544 -107.1515,-102.57432 -119.5801,-123.70899 -7.8225,-13.30204 -9.9832,-21.07262 -10.0058,-36.02148 -0.042,-25.19085 -8.2218,-71.10135 -18.3497,-102.99414 -12.3909,-39.01931 -63.71,-122.56756 -85.4921,-139.18164 -16.9139,-12.90078 -40.4961,-18.65074 -75.8692,-18.49805 z m 696.82423,641.82617 c -0.0712,0.0149 -0.13219,0.0482 -0.18554,0.10157 -0.85353,0.85353 1.13748,6.23928 4.42578,11.96875 7.77381,13.54518 9.9796,11.33943 2.71289,-2.71289 -2.8816,-5.57246 -5.88554,-9.58138 -6.95313,-9.35743 z"
           transform="scale(0.26458333)"
           id="path5444" />
        <path
           inkscape:connector-curvature="0"
           style="fill:#e6e6e6;fill-opacity:1;stroke-width:3.39222646"
           d="m -1447.834,143.66992 -28.9433,0.125 -22.5801,15.98828 c -25.4674,18.03173 -41.3914,39.19506 -60.5274,80.44141 -17.2816,37.24947 -22.4101,54.51204 -30.2363,101.76562 -3.7081,22.3887 -9.1086,47.38685 -12,55.55079 -2.8913,8.16389 -5.2559,25.09402 -5.2559,37.62304 0,31.07868 -5.9844,48.58435 -29.0488,84.9668 -17.4366,27.50532 -25.1515,35.60733 -67.8457,71.25391 -26.4942,22.12074 -53.8418,47.13897 -60.7715,55.5957 -25.0851,30.61311 -39.4142,97.48279 -45.9843,214.58008 -1.7969,32.02499 -6.202,76.29401 -9.7872,98.375 -3.5851,22.08102 -7.5575,50.76205 -8.8281,63.73635 -1.2705,12.9743 -5.1716,34.3463 -8.6699,47.4922 -3.4983,13.1459 -6.4339,33.8239 -6.5234,45.9511 -0.09,12.1273 -1.6559,28.5183 -3.4805,36.4258 -3.1798,13.7806 -7.0955,36.7006 -13.7695,80.6055 -2.0703,13.6194 -1.7891,28.9361 0.8496,46.2949 3.3723,22.1852 3.1184,29.061 -1.7598,47.4902 -3.1373,11.8523 -7.9464,30.3132 -10.6855,41.0235 -2.7392,10.7102 -8.0534,28.5988 -11.8106,39.7519 -3.7572,11.1532 -6.832,25.8312 -6.832,32.6172 0,6.786 -2.1003,20.9536 -4.668,31.4844 -2.5677,10.5307 -6.4821,30.5949 -8.6973,44.5879 -0.6235,3.9388 -1.3861,8.6793 -2.1093,13.2012 a 1612.4914,1612.4914 0 0 0 526.8945,90.4062 1612.4914,1612.4914 0 0 0 551.98828,-98.8496 c -1.19448,-2.7115 -2.26493,-5.002 -3.08007,-6.4531 -14.18729,-25.2557 -37.73207,-102.1305 -54.50391,-177.959 -4.35001,-19.6671 -12.48671,-47.2818 -18.08203,-61.3672 -18.56856,-46.7436 -35.05433,-110.8281 -38.29883,-148.873 -3.38589,-39.7025 -18.01544,-155.81221 -23.96094,-190.17583 -5.63607,-32.57529 -37.0951,-126.57468 -52.791,-157.73828 -7.5176,-14.92577 -18.3762,-44.10984 -24.1309,-64.85351 -7.9514,-28.66213 -15.8146,-47.09269 -32.7558,-76.78126 -20.8929,-36.6136 -24.7877,-41.25281 -62.0176,-73.8789 -52.325,-45.85436 -107.1515,-102.57432 -119.5801,-123.70899 -7.8225,-13.30204 -9.9832,-21.07262 -10.0058,-36.02148 -0.042,-25.19085 -8.2218,-71.10132 -18.3497,-102.99414 -12.3909,-39.01928 -63.71,-122.56758 -85.4921,-139.18164 -16.9139,-12.9008 -40.4961,-18.65085 -75.8692,-18.49805 z m 696.82423,641.82617 c -0.0712,0.0149 -0.1322,0.0482 -0.18554,0.10157 -0.85357,0.85353 1.13755,6.23928 4.42578,11.96875 7.77388,13.54518 9.97964,11.33943 2.71289,-2.71289 -2.8816,-5.57246 -5.88556,-9.58138 -6.95313,-9.35743 z"
           transform="scale(0.26458333)"
           id="path5454" />
        <path
           inkscape:connector-curvature="0"
           style="fill:#aaaaaa;fill-opacity:1;stroke-width:3.39222646"
           d="m -1447.2734,144.0625 c -15.8311,0.0667 -28.3094,2.94936 -36.5196,8.57227 -5.4697,3.74602 -16.432,11.07327 -24.3613,16.2832 -7.9293,5.20992 -14.418,10.85679 -14.418,12.54883 0,1.69203 -5.8633,11.02523 -13.0312,20.74023 -7.168,9.715 -15.0218,23.00707 -17.4531,29.53711 -2.4313,6.53004 -8.8957,21.22519 -14.3653,32.65625 -6.9421,14.50851 -12.4503,35.50526 -18.2402,69.54102 -4.5618,26.81629 -10.644,54.74266 -13.5156,62.06054 -2.8716,7.31792 -5.996,26.40068 -6.9453,42.4043 -0.9494,16.00369 -4.1157,35.79062 -7.0352,43.97266 -7.9256,22.21228 -43.2098,72.97714 -59.5742,85.71093 -28.4777,22.15964 -79.1974,66.63282 -89.9238,78.84961 -25.9107,29.51063 -38.8364,86.01335 -45.0918,197.10157 -1.681,29.85157 -4.4005,64.197 -6.043,76.32421 -1.6425,12.12722 -5.574,41.13159 -8.7363,64.45313 -3.1624,23.32154 -8.1616,54.61524 -11.1094,69.54104 -2.9478,14.9257 -6.513,43.1657 -7.9219,62.7558 -1.4089,19.5901 -4.2487,39.9158 -6.3105,45.168 -2.0619,5.2522 -3.7481,15.2784 -3.7481,22.2813 0,7.0027 -2.4761,21.0225 -5.5019,31.1562 -4.3738,14.6477 -4.9709,25.0327 -2.9121,50.6523 3.1381,39.0521 2.5127,58.4111 -2.2813,70.5547 -1.9894,5.0396 -7.3851,22.8999 -11.9902,39.6914 -7.942,28.958 -10.2095,39.1718 -18.4512,83.1114 -1.9247,10.2615 -5.7366,30.1047 -8.4707,44.0976 -1.7919,9.171 -3.4533,18.3016 -5.0039,27.3418 a 1612.4914,1612.4914 0 0 0 525.3242,89.834 1612.4914,1612.4914 0 0 0 550.67578,-98.4141 c -1.34289,-3.1056 -2.40318,-5.3018 -2.98242,-6 -9.90119,-11.9333 -37.06529,-100.2681 -55.03906,-178.9804 -5.32547,-23.3216 -13.40223,-50.7991 -17.94727,-61.0606 -16.67675,-37.6515 -36.62201,-117.2138 -39.86718,-159.0293 -1.68246,-21.6784 -7.74509,-74.5094 -13.47266,-117.4023 -8.83982,-66.20014 -12.74255,-85.1715 -25.81836,-125.51368 -20.30943,-62.65985 -20.73693,-63.78857 -35.35743,-93.31836 -6.928,-13.99295 -17.5634,-42.99732 -23.6328,-64.45313 -8.0419,-28.42919 -16.658,-48.9981 -31.7676,-75.83203 -17.8784,-31.75128 -24.9376,-40.60366 -51.2637,-64.28516 -58.4674,-52.5942 -128.9326,-125.6246 -136.6835,-141.66015 -5.6009,-11.58716 -7.4864,-21.66229 -7.4864,-40.00196 0,-45.45388 -16.9197,-107.23129 -39.6191,-144.65234 -50.5513,-83.3363 -63.8109,-96.49342 -104.1895,-103.40039 -11.7139,-2.00373 -22.4193,-2.97751 -31.9179,-2.9375 z m 3.1425,54.32422 c 1.2295,0.085 2.2074,1.58135 3.8692,4.55078 1.9515,3.48729 8.6318,11.42285 14.8457,17.63672 6.2138,6.21386 12.128,15.46733 13.1406,20.5625 1.0126,5.09517 3.1141,13.2614 4.6719,18.14648 4.0138,12.58667 -1.4777,21.07446 -11.9375,18.44922 -5.8378,-1.46518 -12.4516,0.72461 -22.5703,7.47266 -14.5943,9.73265 -26.7239,10.75624 -35.9492,3.0332 -2.5723,-2.15338 -10.8264,-5.47992 -18.3418,-7.39258 -19.946,-5.07616 -21.8257,-10.44149 -11.3848,-32.51172 6.5548,-13.85569 12.3364,-20.63087 22.4629,-26.32226 7.4997,-4.21509 13.6367,-9.09154 13.6367,-10.83789 0,-1.74634 3.7073,-3.17578 8.2383,-3.17578 4.5311,0 10.8019,-2.56563 13.9375,-5.70117 2.6699,-2.66993 4.1514,-3.99517 5.3808,-3.91016 z m -10.6152,103.97851 c 1.2071,0.0756 2.2725,0.93946 3.5449,2.47266 2.2094,2.66205 3.1696,7.05015 2.1328,9.75195 -1.0367,2.70181 -0.3614,5.42183 1.502,6.04297 5.9077,1.96924 3.6721,46.00164 -2.6777,52.73633 -2.199,2.33216 -10.9769,4.24024 -19.5059,4.24024 -17.4388,0 -19.4993,3.38864 -7.0273,11.56054 9.0873,5.95427 11.2478,18.23844 4.4101,25.07617 -2.2388,2.23888 -4.9094,4.02349 -5.9355,3.9668 -5.2523,-0.29038 -16.6231,-8.7778 -26.459,-19.75 -6.0636,-6.76407 -11.0254,-11.06102 -11.0254,-9.54883 0,1.51215 -2.2893,0.45875 -5.0879,-2.33984 -7.3139,-7.31388 -6.4598,-27.02532 1.4824,-34.21289 3.6139,-3.27052 8.007,-5.05834 9.7637,-3.97266 5.5728,3.44419 24.7062,-8.47489 31.3223,-19.51172 3.5054,-5.84781 10.1337,-14.73789 14.7304,-19.75586 4.4125,-4.81681 6.8183,-6.88181 8.8301,-6.75586 z m -24.7324,128.14649 c 3.4495,0.14613 7.1096,3.96397 16.3906,13.92969 8.3299,8.94436 15.1445,17.93008 15.1445,19.96679 0,2.03668 -3.8865,5.4735 -8.6386,7.63868 -4.7521,2.16525 -12.8096,3.9375 -17.9043,3.9375 -9.7029,-10e-6 -22.6069,-11.5327 -19.1543,-17.11915 1.0993,-1.77864 0.3821,-3.23437 -1.5938,-3.23437 -1.9758,0 -3.5918,-2.38038 -3.5918,-5.28906 0,-3.17401 1.5869,-4.30803 3.9688,-2.83594 2.6306,1.62588 3.2711,0.63648 1.9004,-2.93555 -1.3351,-3.47909 0.9077,-7.33908 6.3281,-10.89062 3.0869,-2.02264 5.0807,-3.25565 7.1504,-3.16797 z m -4.2012,209.58594 c 0.5582,-0.0457 1.5704,0.49519 3.1035,1.76757 3.4463,2.86046 5.1957,2.93636 6.086,0.26563 1.787,-5.36122 19.7636,10.90456 19.7636,17.88281 0,3.43068 1.8473,5.01258 4.6133,3.95117 5.6396,-2.16415 25.916,14.27858 25.916,21.01563 0,2.67273 -3.8161,6.59743 -8.4804,8.72265 -4.6643,2.12523 -8.4805,5.90907 -8.4805,8.40821 0,2.49906 -1.5269,4.54492 -3.3926,4.54492 -1.8657,0 -3.3926,2.924 -3.3926,6.5 0,3.57596 -1.2979,7.01089 -2.8847,7.63281 -1.5868,0.62189 -6.941,7.60867 -11.8985,15.52344 -8.1806,13.06083 -10.1875,14.33161 -21.7089,13.75586 -16.4306,-0.82103 -24.5555,-2.63674 -24.6133,-5.5 -0.025,-1.26251 -0.9129,-5.51999 -1.9707,-9.46094 -1.4276,-5.31855 -0.1041,-7.6398 5.1347,-9.00976 8.2862,-2.16684 9.5877,-12.65821 1.5703,-12.65821 -4.6491,0 -5.1877,-2.98376 -3.5156,-19.50586 1.0858,-10.72788 2.0304,-20.06004 2.0977,-20.73828 0.067,-0.67816 4.3204,-0.35157 9.4512,0.72461 27.2267,5.71072 30.7261,6.00272 32.746,2.73438 1.1949,-1.93334 -2.1823,-8.56885 -7.5058,-14.74414 -8.9706,-10.40603 -15.0576,-21.61446 -12.6387,-21.8125 z m -27.6211,259.96484 c 11.6359,0.0804 32.6199,8.40897 40.1446,15.93359 5.993,5.99305 6.2923,7.79108 2.3476,14.10743 -2.4863,3.98127 -9.4227,8.85533 -15.4121,10.83203 -5.9894,1.97669 -11.8288,6.55374 -12.9766,10.16992 -2.1695,6.83531 -7.018,8.76947 -8.9785,3.58203 -0.6219,-1.64557 -7.8441,-4.10716 -16.0488,-5.4707 l -14.918,-2.47852 2.0293,10.14063 c 1.2708,6.35414 0.2318,12.51466 -2.7832,16.49609 -2.6466,3.49489 -4.8606,9.02603 -4.9199,12.29102 -0.1511,8.31794 -16.2354,7.60906 -28.0938,-1.23829 -7.0439,-5.25532 -9.33,-9.84018 -9.33,-18.71875 0,-15.1827 8.6286,-31.77539 16.5234,-31.77539 3.3944,0 8.8986,-3.01347 12.2324,-6.69726 3.3338,-3.68383 9.2362,-7.70575 13.1172,-8.9375 3.881,-1.23179 9.8978,-5.85062 13.3692,-10.26367 3.4713,-4.41306 9.6348,-7.99912 13.6972,-7.97266 z m 29.4356,54.22461 c 1.8657,0 3.3925,1.52685 3.3925,3.39258 0,1.86572 -1.5268,3.39258 -3.3925,3.39258 -1.8658,0 -3.3926,-1.52686 -3.3926,-3.39258 0,-1.86573 1.5268,-3.39258 3.3926,-3.39258 z m -25.17,15.37695 c 3.385,0.0217 6.5124,1.59467 6.5137,4.69532 -9e-4,2.64249 -1.9086,5.44152 -4.2402,6.21874 -2.3322,0.77738 -4.2403,-0.33157 -4.2403,-2.46289 0,-2.13135 -1.7262,-2.80854 -3.8339,-1.50585 -2.3261,1.43765 -3.2133,0.51663 -2.2598,-2.34376 1.0318,-3.09528 4.6749,-4.62322 8.0605,-4.60156 z m -18.5058,22.50977 c 2.0681,0.0921 5.4647,2.13262 10.2265,6.09961 l 8.0079,6.67186 -9.3282,0.1133 c -5.1307,0.062 -9.445,-0.2699 -9.5879,-0.7363 -2.5267,-8.25613 -2.3409,-12.28303 0.6817,-12.14847 z"
           transform="scale(0.26458333)"
           id="path5452" />
        <path
           inkscape:connector-curvature="0"
           style="fill:#6e6e6e;fill-opacity:1;stroke-width:3.39222646"
           d="m -1466.5996,146.42773 -22.043,14.71289 c -12.1239,8.09292 -22.1953,16.98627 -22.3808,19.76172 -0.7719,11.5459 -1.5645,13.52735 -5.4082,13.52735 -2.2203,0 -9.7981,6.36543 -16.8399,14.14648 -9.3765,10.36092 -13.3869,18.30476 -14.9824,29.68164 -1.1983,8.54404 -4.0565,17.06201 -6.3516,18.92774 -6.8623,5.57859 -12.0644,17.59073 -12.0644,27.85547 0,5.30469 -2.5495,13.28487 -5.666,17.73437 -5.5271,7.89096 -6.9954,14.734 -9.1524,42.66016 -0.5786,7.49151 -2.6177,16.65068 -4.5312,20.35351 -1.9133,3.70283 -2.796,8.63812 -1.961,10.9668 0.8351,2.32866 -1.5315,9.19658 -5.2578,15.26367 -4.8352,7.87264 -7.4718,20.25859 -9.209,43.25781 -2.6763,35.4333 -10.1831,58.74503 -25.6718,79.7168 -5.5118,7.46287 -14.5074,19.98785 -19.9903,27.83203 -5.4829,7.84418 -24.1295,26.1625 -41.4375,40.70703 -52.3464,43.98871 -76.7806,68.86605 -85.6953,87.25391 -17.0906,35.25177 -27.3201,94.04575 -32.5039,186.82227 -1.6679,29.85157 -4.6319,64.19703 -6.5859,76.32421 -1.954,12.12722 -6.5076,44.5128 -10.1192,71.96681 -3.6115,27.4539 -8.9107,58.9666 -11.7773,70.0293 -2.8667,11.0627 -5.2293,31.3428 -5.252,45.0664 -0.022,13.7236 -2.2821,33.3479 -5.0215,43.6094 -2.7394,10.2615 -6.0008,34.6853 -7.248,54.2754 -1.2473,19.5901 -3.698,36.5521 -5.4453,37.6933 -1.9499,1.2736 -1.7616,7.1698 0.4863,15.2656 6.645,23.9325 4.0878,44.0047 -13.2617,104.1211 -9.3286,32.3239 -16.9609,64.296 -16.9609,71.0489 0,6.7528 -1.6678,16.5759 -3.7051,21.8281 -2.0373,5.2522 -5.1577,18.708 -6.9336,29.9023 -1.8294,11.5313 -3.4794,22.4327 -5.043,33.0196 a 1612.4914,1612.4914 0 0 0 523.709,89.2441 1612.4914,1612.4914 0 0 0 549.03125,-97.8672 c -1.04514,-2.2155 -2.04179,-4.1924 -2.92578,-5.7402 -12.42958,-21.7635 -38.5279,-107.8616 -55.14648,-181.9277 -4.65963,-20.7672 -12.13348,-46.036 -16.60742,-56.1524 -16.6325,-37.6089 -36.18798,-114.4289 -39.56446,-155.418 -3.42194,-41.5421 -13.62903,-123.3129 -22.01758,-176.39449 -6.38407,-40.3976 -30.73028,-115.98223 -52.66603,-163.50586 -9.2145,-19.9632 -20.715,-51.25684 -25.5586,-69.54102 -7.7119,-29.11196 -27.8325,-74.06086 -39.9336,-89.21484 -2.2347,-2.79859 -6.2858,-9.52725 -9.0039,-14.95117 -2.7181,-5.42389 -26.5948,-28.73079 -53.0586,-51.79297 -49.5339,-43.16689 -108.4141,-104.48411 -117.8476,-122.72657 -3.1994,-6.18682 -5.346,-18.90863 -5.3535,-31.70312 -0.013,-24.86256 -8.3492,-75.7615 -15.6778,-95.72656 -2.7944,-7.61267 -6.6472,-19.02834 -8.5625,-25.36719 -1.9154,-6.33885 -8.9999,-20.07663 -15.7422,-30.5293 -6.7421,-10.45267 -19.4987,-30.45433 -28.3496,-44.44726 -30.1724,-47.70133 -44.9194,-57.09867 -93.7988,-59.77149 z m 20.8691,45.8418 c 2.7681,-0.0602 5.0713,1.1608 8.8262,3.62109 4.5057,2.95228 10.2291,9.17419 12.7188,13.82618 2.4896,4.65198 5.6838,8.45703 7.0976,8.45703 3.1806,0 13.2441,19.72795 13.2441,25.96289 1e-4,2.51194 1.5269,4.56836 3.3926,4.56836 1.8658,0 3.3926,6.01985 3.3926,13.37695 0,13.93104 -8.6343,23.9375 -20.6523,23.9375 -3.0647,0 -9.7832,3.31352 -14.9317,7.36328 -8.9749,7.05969 -9.261,8.21372 -6.9394,27.98633 1.3317,11.34246 2.2854,22.52917 2.1191,24.86133 -0.1664,2.33215 -0.5581,8.93638 -0.8691,14.67578 -0.401,7.40029 -3.7702,12.87996 -11.584,18.83984 -10.037,7.65559 -10.7409,9.36817 -7.9141,19.22461 1.7068,5.95106 3.1035,15.60507 3.1035,21.45313 0,13.36142 8.8121,34.8956 15.2989,37.38476 9.0039,3.45517 3.5244,16.20504 -8.8223,20.52735 -34.8861,12.21278 -63.5061,-9.44933 -57.3027,-43.37305 1.793,-9.8053 1.2855,-13.25391 -1.9473,-13.25391 -2.4034,0 -6.0914,-5.22077 -8.1973,-11.60156 -2.1058,-6.38079 -6.041,-13.43822 -8.7441,-15.68164 -5.2187,-4.33119 -6.9678,-39.02834 -2.3184,-45.99023 1.3708,-2.0525 8.9382,-4.57344 16.8164,-5.60157 7.8782,-1.02813 16.3753,-3.92681 18.8829,-6.44336 10.3833,-10.42062 16.6489,-23.49558 14.7968,-30.875 -2.141,-8.53048 -18.2311,-19.49609 -28.6074,-19.49609 -10.7851,0 -15.2226,-8.29422 -12.6348,-23.61133 1.2702,-7.51765 3.7029,-14.52928 5.4063,-15.58203 1.7034,-1.05274 3.0976,-4.22318 3.0976,-7.04492 0,-5.65981 7.9148,-14.82227 12.8047,-14.82227 1.7128,0 8.4002,-5.13319 14.8594,-11.40625 6.4592,-6.27305 17.2552,-14.01987 23.9922,-17.21679 5.6144,-2.66419 8.8472,-4.00617 11.6152,-4.06641 z m 28.3086,157.60352 14.4219,2.38672 c 7.9316,1.31246 15.4627,2.99993 16.7363,3.75 3.477,2.04772 2.3679,22.67993 -1.4804,27.53515 -5.8661,7.40073 -26.1578,3.31612 -26.5059,-5.33594 -0.1259,-3.1282 -0.89,-10.78373 -1.6992,-17.01171 z m 0.039,214.30859 c 3.6871,0 13.5726,19.73221 13.4316,26.81055 -0.1375,6.9007 -7.9418,17.28906 -12.9883,17.28906 -2.1264,0 -3.8652,1.68855 -3.8652,3.75391 0,2.06513 -2.1046,2.94762 -4.6758,1.96093 -2.5712,-0.98668 -6.3874,-0.0813 -8.4804,2.01172 -2.0931,2.0931 -3.8047,2.81068 -3.8047,1.59375 0,-1.21689 -4.0982,1.58609 -9.1074,6.22852 -5.0093,4.64247 -11.1168,7.67007 -13.5704,6.72851 -12.4176,-4.76507 3.5491,18.53094 21.7246,31.69727 9.8499,7.13514 17.197,16.80682 24.6876,32.50195 5.865,12.28906 9.9781,24.19129 9.1406,26.44922 -0.8376,2.25789 3.8099,9.69148 10.3281,16.51953 11.7236,12.28101 12.4774,21.76708 1.457,18.32227 -3.1079,-0.97153 -13.8056,-2.04574 -23.7734,-2.38477 l -18.1231,-0.61523 2.0098,-10.05274 c 1.1057,-5.52839 2.0098,-11.47612 2.0098,-13.21875 0,-1.74262 1.4033,-2.30339 3.1172,-1.24414 4.44,2.74409 8.4751,-18.42718 4.3066,-22.5957 -5.2482,-5.24818 -10.8144,0.0432 -10.8144,10.2793 0,5.60931 -2.7402,10.87117 -7.0684,13.57422 -3.8876,2.42781 -6.3118,6.38599 -5.3867,8.79687 0.925,2.41067 -1.1572,6.81341 -4.625,9.7832 -14.3795,12.31014 -52.723,8.55778 -62.3281,-6.10156 -4.3612,-6.65586 -4.6274,-9.84891 -1.4083,-16.91406 3.0308,-6.65291 3.0279,-9.64598 -0.012,-12.68555 -2.1882,-2.18823 -3.9785,-9.55768 -3.9785,-16.375 0,-15.05359 13.8175,-32.2902 23.0274,-28.72656 3.1942,1.23598 10.004,3.09546 15.1347,4.13086 14.6482,2.95612 11.1423,-4.93425 -4.2402,-9.54297 -7.4629,-2.23593 -13.5684,-5.74874 -13.5684,-7.80469 0,-5.53334 15.7059,-21.46987 23.6407,-23.98828 7.2741,-2.30869 8.8658,-10.31353 3.6816,-18.50781 -4.7139,-7.45089 2.2384,-17.77248 11.0703,-16.43555 5.1621,0.78138 12.3636,-3.77644 23.793,-15.05859 9.0149,-8.89886 17.6815,-16.17969 19.2578,-16.17969 z m -91.1504,333.25977 c 18.5956,0.50311 50.4141,20.70403 50.4141,33.73632 0,3.38238 -1.3578,6.14844 -3.0176,6.14844 -1.6597,0 -3.0013,5.72423 -2.9824,12.72071 0.042,14.85773 -3.6938,27.98632 -7.9649,27.98632 -1.6481,0 -2.9961,2.2893 -2.9961,5.08789 0,2.79859 -3.0537,8.1416 -6.7851,11.87305 -3.7315,3.73145 -5.9673,6.78516 -4.9688,6.78516 0.9985,0 0.1826,3.0517 -1.8144,6.7832 -4.4451,8.3056 -20.1765,8.8459 -37.3164,1.2793 -6.5301,-2.8827 -21.4812,-8.2484 -33.2266,-11.92383 -23.98,-7.50384 -28.5038,-13.747 -25.793,-35.60352 2.0443,-16.48165 8.7888,-26.78933 22,-33.62109 5.7242,-2.96005 17.2772,-10.62539 25.6719,-17.0332 8.3947,-6.40785 18.9611,-12.57813 23.4824,-13.71289 1.5908,-0.39928 3.3732,-0.55791 5.2969,-0.50586 z m -175.4336,331.86129 c 4.6266,0.1039 8.7441,5.8438 8.7441,15.2969 0,3.084 -3.6521,4.8125 -10.1757,4.8125 -10.8045,0 -12.3437,-3.1842 -6.6661,-13.793 2.3616,-4.4125 5.3217,-6.3787 8.0977,-6.3164 z m -52.6582,37.1661 c 2.0395,-0.034 3.7344,1.6424 3.7344,4.791 0,2.6885 -1.4195,5.7664 -3.1563,6.8398 -4.0329,2.4925 -8.0906,-3.8578 -5.3242,-8.334 1.3647,-2.2081 3.1599,-3.2705 4.7461,-3.2968 z m 67.0918,24.5312 c 2.9032,0.1189 5.2213,1.8105 9.0801,5.4355 4.2451,3.9881 9.692,7.252 12.1035,7.252 2.4114,0 3.5718,2.1148 2.5801,4.6992 -0.9918,2.5844 0.5077,7.9972 3.332,12.0293 2.8242,4.0322 4.2829,9.5497 3.2422,12.2617 -2.5392,6.6169 -12.2813,6.3118 -12.2813,-0.3847 0,-2.9239 -5.2847,-10.3006 -11.7441,-16.3926 -9.6388,-9.0907 -13.7423,-10.7835 -22.8867,-9.4414 -9.7382,1.4293 -10.5953,0.9764 -6.8008,-3.5957 2.3878,-2.8772 8.9307,-7.132 14.5391,-9.4551 3.965,-1.6424 6.5778,-2.5007 8.8359,-2.4082 z m 86.334,97.5859 c 3.3203,0.1115 7.44,1.6508 11.5957,4.6895 6.3776,4.6637 6.3832,4.9538 0.2363,11.7461 -3.4665,3.8304 -5.4571,9.1666 -4.4238,11.8594 1.0333,2.6928 -1.0114,7.511 -4.543,10.707 -3.5315,3.1961 -6.0994,7.448 -5.707,9.4473 0.3923,1.9992 -1.9577,4.2176 -5.2227,4.9316 -8.0143,1.7527 -7.5682,-6.3456 0.8477,-15.3789 7.2455,-7.7771 8.9704,-19.3828 3.3926,-22.8301 -1.8658,-1.1531 -3.3926,-5.0603 -3.3926,-8.6816 0,-4.4188 2.9478,-6.6336 7.2168,-6.4903 z m 29.9902,16.8672 c 1.8072,0 2.4079,2.2913 1.334,5.0899 -1.0739,2.7986 -2.5519,5.0879 -3.2852,5.0879 -0.7332,0 -1.3339,-2.2893 -1.3339,-5.0879 0,-2.7986 1.4779,-5.0899 3.2851,-5.0899 z m 591.58986,4.5664 c 0.3085,0.047 0.67595,0.5673 1.08203,1.5821 0.98011,2.4487 0.85963,5.3747 -0.26758,6.5019 -1.1272,1.1272 -1.92827,-0.8752 -1.78125,-4.4512 0.10172,-2.4698 0.45263,-3.7106 0.9668,-3.6328 z m -18.75586,15.9043 c 3.88261,0.1365 7.36955,1.8409 8.67773,5.25 3.07847,8.0225 2.48263,18.3789 -1.05664,18.3789 -1.71314,0 -5.24323,0.8178 -7.8457,1.8164 -2.60243,0.9987 -7.42863,-1.1645 -10.72461,-4.8066 -4.79297,-5.2962 -5.23573,-8.0375 -2.21094,-13.6895 2.521,-4.7105 8.16823,-7.1246 13.16016,-6.9492 z m 5.07031,46.3711 c 2.2708,0 4.51195,0.4745 6.51367,1.5235 8.49128,4.4495 7.32549,11.9654 -2.22851,14.3632 -4.49095,1.1272 -10.29552,2.8665 -12.89844,3.8653 -6.49795,2.4935 -9.07168,-0.8671 -6.93164,-9.0508 1.65645,-6.3341 8.73252,-10.6896 15.54492,-10.7012 z m -621.57621,1.1094 c 3.4029,0.059 6.2603,2.9586 7.3789,8.8105 2.1786,11.3965 -14.2649,30.6511 -20.6894,24.2266 -5.2763,-5.2763 -5.009,-9.6639 1.3672,-22.4453 3.5292,-7.0744 8.0868,-10.6581 11.9433,-10.5918 z m 78.7286,0.025 c 6.3914,-0.1654 17.6852,5.7282 18.6933,10.9629 0.6214,3.2264 -0.8904,5.8326 -3.3594,5.791 -6.6681,-0.1121 -21.7516,-12.6254 -18.789,-15.5879 0.7661,-0.7662 1.9801,-1.1278 3.4551,-1.166 z m -286.3184,3.0683 c 0.7074,-0.073 1.5325,0.2493 2.3945,1.1114 v 0 c 1.1272,1.1272 1.4067,3.9771 0.6211,6.334 -1.149,3.4457 -1.9487,3.4425 -4.0859,-0.016 -2.1219,-3.4333 -1.052,-7.2117 1.0703,-7.4317 z m 15.4121,31.8653 c 0.5416,-0.054 1.1929,0.1203 1.8926,0.5527 1.8657,1.1531 3.3926,2.771 3.3926,3.5938 0,0.8227 -1.5269,1.4961 -3.3926,1.4961 -1.8657,0 -3.3906,-1.618 -3.3906,-3.5938 0,-1.2349 0.5953,-1.9595 1.498,-2.0488 z m 308.7559,15.8183 c 5.3957,0 8.6152,1.9008 8.6152,5.0879 0,6.4368 -7.1277,6.3653 -12.8555,-0.1289 -3.7019,-4.1973 -3.0504,-4.959 4.2403,-4.959 z m 482.98043,15.461 c 4.6929,0.015 10.72266,3.022 10.72266,6.7832 0,2.4709 -1.16214,5.2123 -2.58203,6.0898 -3.9298,2.4288 -15.34506,-7.0652 -13.01956,-10.8281 0.8896,-1.4394 2.7458,-2.0518 4.87893,-2.0449 z"
           transform="scale(0.26458333)"
           id="path5450" />
        <path
           inkscape:connector-curvature="0"
           style="fill:#333333;fill-opacity:1;stroke-width:3.39222646"
           d="m -1454.5078,153.86133 c -3.605,0.1797 -7.8395,1.86818 -10.3965,4.94922 -2.3226,2.79859 -7.0908,5.08789 -10.5937,5.08789 -3.5031,0 -6.3692,2.14174 -6.3692,4.75781 0,2.61607 -4.6231,6.3675 -10.2754,8.33789 -8.8191,3.07437 -9.9681,4.81112 -8.1015,12.24805 1.2576,5.01076 0.4232,10.77635 -1.9766,13.66797 -2.2829,2.7506 -3.1998,7.47968 -2.0371,10.50976 1.4563,3.79498 0.6526,4.94901 -2.584,3.70703 -6.9852,-2.68046 -14.9114,13.42473 -9.3144,18.92578 2.3344,2.29446 3.9537,2.64502 3.5996,0.7793 -1.4404,-7.58694 0.4311,-11.87305 5.1836,-11.87305 2.763,0 5.9816,-3.81615 7.1523,-8.48046 1.3821,-5.50708 4.5057,-8.48047 8.9082,-8.48047 4.6328,0 6.1624,-1.61092 4.8281,-5.08789 -1.3047,-3.40003 0.1416,-5.08985 4.3614,-5.08985 3.4732,0 7.1842,-2.26412 8.246,-5.03125 1.201,-3.12967 4.1249,-4.18858 7.7364,-2.80273 4.5394,1.74194 5.2991,0.90792 3.4824,-3.82617 -2.0147,-5.25039 -1.0798,-5.69626 7.043,-3.35352 5.1518,1.48588 13.603,2.63662 18.7793,2.55664 5.1762,-0.08 8.7863,0.47924 8.0234,1.24219 -2.2258,2.22579 20.275,24.78515 24.7207,24.78515 2.222,10e-6 3.05,1.59962 1.8418,3.55469 -1.2085,1.95507 -1.2804,5.94197 -0.1602,8.86133 1.7407,4.53605 2.8948,4.63569 7.9336,0.68555 5.302,-4.15645 5.4389,-4.03843 1.3633,1.16601 -4.7976,6.12656 -2.3748,14.39509 3.2071,10.94532 1.9856,-1.22723 2.4576,1.29658 1.1874,6.35742 -1.1588,4.61709 -0.5506,9.35756 1.3516,10.5332 1.9022,1.17563 2.5759,5.54057 1.4981,9.69922 -1.0778,4.15865 -1.9588,11.88702 -1.959,17.17383 -3e-4,6.61391 -0.911,8.2007 -2.9199,5.08789 -3.6419,-5.64295 -8.8532,0.88906 -11.9063,14.92578 -1.1094,5.10046 -3.4203,8.40725 -5.1348,7.34766 -1.7144,-1.05959 -2.1892,-4.85135 -1.0547,-8.42579 1.4554,-4.58537 0.4395,-6.5 -3.4531,-6.5 -3.0344,0 -4.5749,1.52686 -3.4219,3.39258 1.1531,1.86573 -1.1137,3.39258 -5.0371,3.39258 -3.9233,0 -6.8252,1.90808 -6.4492,4.24023 0.3761,2.33216 -0.4834,6.91077 -1.9101,10.17579 -5.0177,11.48275 3.6196,17.73766 18.164,13.15429 0.7556,-0.23811 -1.3906,-3.48535 -4.7676,-7.21679 -7.5279,-8.31831 -4.2729,-8.92464 5.0508,-0.94141 3.7528,3.21323 6.8223,8.31806 6.8223,11.3457 0,6.30195 12.5517,18.88181 15.6992,15.73438 1.1487,-1.14866 6.6374,2.45966 12.1973,8.01953 8.2556,8.25556 9.351,11.0231 5.9726,15.09375 -2.2752,2.74145 -3.4054,8.80933 -2.5117,13.48437 1.0906,5.70501 0.1053,8.5 -2.9941,8.5 -2.5399,0 -4.6172,2.24238 -4.6172,4.98243 0,3.20821 -1.9659,4.22769 -5.5215,2.86328 -4.6001,-1.76523 -5.288,-0.11353 -4.1191,9.89844 0.9786,8.38234 0.1738,11.54331 -2.6621,10.45507 -2.2361,-0.85806 -4.8009,1.22497 -5.6993,4.62696 -1.4381,5.44664 -1.9254,5.27356 -4.0839,-1.44727 -2.8908,-9.00079 -11.8033,-10.27097 -11.9122,-1.69726 -0.062,4.90484 -1.1494,4.53847 -6.2617,-2.10938 -5.5301,-7.19119 -6.4273,-7.42087 -8.4453,-2.16211 -1.7109,4.45852 -3.3523,4.97638 -6.7715,2.13867 -6.0503,-5.02118 -8.3503,-2.05782 -6.3847,8.22461 1.2362,6.4667 2.659,7.61486 5.998,4.84375 3.0407,-2.52355 5.0468,-2.5455 6.5742,-0.0742 1.2091,1.95636 0.5278,3.55664 -1.5136,3.55664 -2.6638,0 -2.643,1.99696 0.074,7.07422 2.083,3.89122 3.0262,7.83512 2.0976,8.76367 -0.9285,0.92856 1.2386,4.6135 4.8145,8.18946 7.8162,7.81617 8.7429,17.32598 1.414,14.51367 -2.993,-1.1486 -5.0898,-0.0449 -5.0898,2.68164 0,6.08353 -11.9889,13.44706 -18.0859,11.10742 -2.6318,-1.00993 -7.2714,0.6503 -10.3106,3.68946 -3.0391,3.03915 -5.5254,4.13175 -5.5254,2.42968 0,-1.70211 -8.5136,-4.99929 -18.9199,-7.32812 -10.4062,-2.3288 -18.1293,-5.02497 -17.1621,-5.99219 0.9672,-0.96718 -1.9676,-5.7783 -6.5215,-10.68945 -4.5539,-4.9112 -8.2793,-11.5074 -8.2793,-14.65821 0,-3.15084 -1.9816,-7.74551 -4.4023,-10.21093 -4.2788,-4.35772 -14.586,-42.2707 -13.0742,-48.08985 0.4145,-1.59568 -0.6286,-4.64938 -2.3165,-6.78515 -7.4871,-9.47373 -7.2044,-50.90813 0.3379,-49.56055 8.661,1.54744 29.6309,-4.74906 29.6309,-8.89649 0,-2.63459 3.0537,-4.78906 6.7852,-4.78906 3.8832,0 6.7851,-2.26201 6.7851,-5.28906 0,-3.14169 -1.5951,-4.30295 -3.9277,-2.86133 -2.6807,1.65676 -3.3305,0.14471 -2.0469,-4.76367 1.7083,-6.53274 0.6824,-7.08796 -11.2285,-6.07812 -21.8552,1.85292 -26.0689,-10.08153 -18.6113,-52.69336 1.9935,-11.39093 -1.2495,-14.69602 -6.9942,-7.13086 -5.3233,7.01024 -6.0517,19.90147 -1.291,22.84375 4.6588,2.87929 4.276,8.48047 -0.5801,8.48047 -7.2785,0 -16.3796,11.11592 -16.4023,20.03124 -0.011,4.84158 -2.3008,13.17553 -5.0879,18.51954 -2.7871,5.344 -5.0684,12.28855 -5.0684,15.43359 0,3.14504 -1.8944,7.61508 -4.2109,9.93164 -3.3544,3.35442 -3.1869,4.84371 0.8203,7.32031 4.0072,2.47661 4.1728,3.96785 0.8184,7.32227 -2.3166,2.31656 -4.211,6.96006 -4.211,10.31836 0,3.3583 -1.6998,6.10547 -3.7773,6.10547 -2.2209,0 -3.1944,3.97253 -2.3633,9.64258 1.1739,7.99816 -0.2442,10.37786 -8.3125,13.94921 -7.1404,3.16078 -9.0734,5.78491 -7.2676,9.86329 4.2082,9.50407 2.3929,20.14052 -5.0508,29.60351 -8.6998,11.06003 -8.913,13.93711 -1.2168,16.42578 8.1385,2.63165 14.7094,17.24175 9.9122,22.03906 -5.6188,5.61729 -10.4424,4.29526 -5.6036,-1.53515 2.3598,-2.84364 3.4126,-6.04845 2.3379,-7.12305 -2.9789,-2.97895 -9.1894,1.9112 -9.1894,7.23633 0,2.59578 -2.1683,5.94162 -4.8184,7.43359 -2.65,1.49201 -5.7121,7.2915 -6.8047,12.88867 -1.09,5.59737 -1.0838,8.26966 0.016,5.9375 2.7728,-5.88136 8.2167,-5.31985 8.2167,0.84766 0,2.79859 -2.4529,5.08789 -5.4511,5.08789 -3.2377,0 -4.7218,1.89915 -3.6563,4.67578 0.9867,2.57122 0.4011,6.06765 -1.3008,7.76953 -1.8641,1.86429 -1.789,7.64439 0.1895,14.54297 l 3.2832,11.45117 -9.2519,-8.46093 c -10.3771,-9.48783 -19.7492,-9.13132 -22.9239,0.87109 -2.5817,8.13426 -55.6175,60.74024 -61.2363,60.74024 -2.2111,0 -4.8285,3.09784 -5.8184,6.88281 -0.9897,3.78501 -3.3047,6.45553 -5.1445,5.93555 -1.8398,-0.51995 -3.7452,0.58153 -4.2324,2.44726 -0.4872,1.86573 -5.2191,5.49148 -10.5156,8.05664 -5.2966,2.5652 -9.6289,6.58372 -9.6289,8.93164 0,2.34796 -3.2078,5.10792 -7.127,6.13281 -3.9238,1.02611 -6.1188,3.49075 -4.8867,5.48438 1.2307,1.99132 0.086,3.62109 -2.543,3.62109 -6.9855,0 -28.5114,38.20433 -36.3437,64.50391 -7.8355,26.31012 -8.4564,38.02104 -2.5274,47.58789 3.45,5.56664 3.368,7.3848 -0.4355,9.75195 -2.5712,1.60022 -3.6258,4.60733 -2.3438,6.68164 1.3295,2.15116 0.059,3.77149 -2.957,3.77149 -2.9087,0 -5.3134,1.90808 -5.3399,4.24023 -0.5675,48.12367 -6.9585,123.41052 -13.7519,161.97852 -1.8075,10.26149 -5.4965,37.27926 -8.1973,60.04095 -2.7008,22.7618 -7.1886,51.2085 -9.9726,63.2129 -2.9413,12.6826 -4.4465,30.8721 -3.5938,43.42 0.8671,12.7588 -0.4758,28.5334 -3.2812,38.5546 -6.0892,21.7515 -7.4272,36.1376 -3.8946,41.8536 1.6122,2.6086 1.1975,6.1365 -0.9746,8.3086 -5.0137,5.0138 -4.8966,13.6886 0.1426,10.5742 2.1542,-1.3313 3.1522,-1.0391 2.2188,0.6484 -6.922,12.5141 -8.0775,21.7183 -10.6485,84.8633 -0.8442,20.7333 -3.2965,40.9915 -5.4512,45.0176 -2.1547,4.0261 -2.9944,8.8154 -1.8652,10.6425 1.1293,1.8272 0.8303,5.2304 -0.6641,7.5625 -5.123,7.9956 -11.1501,27.9873 -11.2011,37.1543 -0.048,8.5737 -2.9511,17.8879 -11.0508,35.4551 -1.8535,4.02 -2.5093,8.7018 -1.457,10.4043 1.0521,1.7025 -0.4246,9.8624 -3.2832,18.1328 -2.8587,8.2705 -8.0827,33.3555 -11.6075,55.7442 -0.8803,5.5914 -1.8117,11.3568 -2.7402,16.9922 a 1612.4914,1612.4914 0 0 0 159.1816,45.541 c 0.7317,-0.6511 1.5138,-1.2876 2.3555,-1.9004 15.9468,-11.6104 17.3526,-11.9013 24.252,-5.002 5.4673,5.4673 6.0162,7.8142 3.039,14.4727 a 1612.4914,1612.4914 0 0 0 332.3262,35.1992 1612.4914,1612.4914 0 0 0 470.35352,-71.7246 c 1.79693,-5.0864 4.30252,-7.0338 7.04492,-4.7578 0.77162,0.6404 1.77879,1.1235 2.87695,1.4609 a 1612.4914,1612.4914 0 0 0 67.16797,-22.3183 c -0.21055,-0.4354 -0.41544,-0.8906 -0.63086,-1.3086 -12.10374,-23.4894 -23.93039,-53.5473 -28.64648,-72.8028 -2.51324,-10.2615 -10.75967,-41.5551 -18.32617,-69.541 -7.56654,-27.9859 -13.79979,-54.4249 -13.85157,-58.7539 -0.0519,-4.3289 -6.0654,-23.4098 -13.36132,-42.4023 -21.20599,-55.203 -36.5918,-117.3887 -40.85938,-165.1328 -2.08456,-23.3216 -6.64514,-63.012 -10.13281,-88.1993 -3.48767,-25.1872 -8.15954,-59.53263 -10.38281,-76.32416 -4.80847,-36.31703 -29.53244,-113.33685 -53.74606,-167.42578 -9.4517,-21.11354 -20.487,-51.61509 -24.5215,-67.7793 -7.5667,-30.31551 -15.5119,-48.56537 -36.4239,-83.66406 -15.7969,-26.51377 -22.7928,-34.10453 -63.3886,-68.78906 -18.6572,-15.94054 -39.2992,-34.46259 -45.8711,-41.15821 -6.572,-6.69566 -15.7311,-15.48371 -20.3535,-19.53125 -4.6225,-4.04746 -14.1921,-14.30363 -21.2676,-22.79101 -7.0755,-8.48735 -17.3803,-18.09972 -22.8984,-21.35938 -5.5182,-3.25969 -10.0332,-8.5602 -10.0332,-11.77929 -10e-5,-3.21907 -1.5443,-6.80619 -3.4317,-7.97266 -1.933,-1.19467 -3.2556,-14.70217 -3.0273,-30.92969 0.4102,-29.178 -1.6195,-37.29296 -7.1094,-28.41015 -1.6629,2.69054 -4.2076,3.7084 -5.6543,2.26171 -1.4467,-1.44672 -0.5285,-3.92882 2.0391,-5.51562 2.5674,-1.58679 5.0914,-6.87454 5.6113,-11.75 0.5198,-4.87546 -0.3732,-8.04774 -1.9863,-7.05078 -1.6131,0.99696 -3.8278,0.3649 -4.92,-1.40235 -1.0922,-1.76723 -0.4332,-4.17185 1.4629,-5.34375 3.9655,-2.45081 4.7218,-15.28995 0.9024,-15.3164 -1.3993,-0.01 -2.8897,-6.10671 -3.3125,-13.54883 -0.4229,-7.44212 -3.8578,-19.5847 -7.6328,-26.98438 -3.7751,-7.39968 -6.8633,-15.80482 -6.8633,-18.67773 0,-2.87291 -2.1866,-5.22266 -4.8594,-5.22266 -2.6729,0 -5.8293,-3.0537 -7.0137,-6.78515 -1.1843,-3.73145 -3.5764,-6.78516 -5.3164,-6.78516 -1.74,0 -3.164,-2.2893 -3.164,-5.08789 0,-2.79858 -1.1457,-4.84228 -2.545,-4.54101 -1.3993,0.30127 -7.0715,-1.31182 -12.6054,-3.58594 -7.3023,-3.00079 -8.831,-4.89541 -5.5742,-6.90821 3.4683,-2.14361 3.5484,-3.35354 0.3535,-5.32812 -2.2735,-1.40511 -5.1829,-0.85488 -6.4668,1.22266 -1.2841,2.07753 -2.336,-1.37862 -2.336,-7.67969 0,-8.56461 1.2303,-10.9838 4.8731,-9.58594 2.68,1.02842 4.2567,0.48175 3.5039,-1.21484 -10.896,-24.5556 -18.0591,-35.44639 -22.2559,-33.83594 -2.6486,1.01638 -8.8495,-2.18741 -13.7812,-7.11914 -5.1098,-5.10966 -9.514,-7.32531 -10.2383,-5.15234 -1.2669,3.80044 -2.9075,2.91196 -15.6953,-8.49219 -3.4778,-3.10147 -5.4895,-3.10147 -8.7871,0 -3.3064,3.10968 -4.6384,3.02836 -5.877,-0.35938 -1.2304,-3.36555 -2.7065,-3.46486 -6.3613,-0.43164 -3.6452,3.02524 -6.0095,2.91105 -10.1055,-0.48828 -4.4312,-3.67761 -5.8737,-3.60457 -8.4277,0.43164 -2.1399,3.3817 -3.097,3.57515 -3.1348,0.63086 -0.036,-2.95177 -3.0102,-4.28126 -6.6152,-4.10156 z m 63.8984,23.60742 c 1.8292,0 4.3327,1.62733 5.5625,3.61719 3.4807,5.63179 0.3564,6.41336 -4.5136,1.1289 -2.4058,-2.61041 -2.8781,-4.74609 -1.0489,-4.74609 z m -8.1445,3.65625 c 1.5231,0.0232 0.5313,1.96658 -3.0137,5.96094 -5.251,5.91657 -5.6345,8.14321 -2.1289,12.36718 3.0571,3.68357 3.1598,5.15235 0.3613,5.15235 -10.4467,0 -7.6213,-19.69986 3.3262,-23.19141 0.619,-0.19742 1.1036,-0.29441 1.4551,-0.28906 z m 22.0488,6.51953 c 1.8657,0 3.3906,2.2002 3.3906,4.88867 0,2.68848 -1.5249,5.83129 -3.3906,6.98438 -1.8657,1.15308 -3.3926,-1.04712 -3.3926,-4.88867 0,-3.84156 1.5269,-6.98438 3.3926,-6.98438 z m -164.7207,82.55469 c -0.9027,0.0894 -1.5,0.81589 -1.5,2.05078 0,1.97583 1.5269,3.5918 3.3926,3.5918 1.8657,0 3.3926,-0.67334 3.3926,-1.4961 0,-0.82275 -1.5269,-2.43871 -3.3926,-3.59179 -0.6997,-0.43241 -1.3509,-0.60831 -1.8926,-0.55469 z m 2.836,14.03516 c 1.4051,0.0869 2.8812,1.40909 3.6836,3.5 1.0697,2.78787 0.5564,5.06835 -1.1407,5.06835 -4.5983,0 -7.4535,-6.02819 -3.8965,-8.22656 0.4252,-0.26276 0.8852,-0.37077 1.3536,-0.34179 z m 144.9218,11.96093 c 1.8658,0 3.3926,2.29126 3.3926,5.08985 0,2.79858 -1.5268,5.08789 -3.3926,5.08789 -1.8657,0 -3.3906,-2.28931 -3.3906,-5.08789 0,-2.79859 1.5249,-5.08985 3.3906,-5.08985 z m -46.4355,89.53516 c -2.7256,-0.0411 -6.6445,1.46577 -9.6328,3.85156 -6.5059,5.19409 -6.4678,5.28006 1.3711,3.10547 5.3251,-1.47719 7.296,-1.00386 5.8125,1.39648 -1.2346,1.99756 0.4813,6.61183 3.8144,10.25586 7.8743,8.60886 8.6715,8.63077 5.9824,0.15821 -1.5145,-4.77188 -0.2244,-8.55568 4.0118,-11.76563 5.5348,-4.19391 5.6001,-4.74227 0.5839,-4.83789 -3.1124,-0.0593 -7.7351,-0.90488 -10.2734,-1.87891 -0.4759,-0.18262 -1.0409,-0.27567 -1.6699,-0.28515 z m 34.7637,42.76172 c 0.8227,0 1.496,1.52685 1.496,3.39258 0,1.86572 -1.6159,3.39257 -3.5917,3.39257 -1.9759,0 -2.6492,-1.52685 -1.4961,-3.39257 1.1531,-1.86573 2.769,-3.39258 3.5918,-3.39258 z m -174.0528,4.08008 c 0.6995,-0.0608 1.7988,0.60152 3.168,1.9707 2.2078,2.20781 3.2237,4.80169 2.2598,5.76562 -2.264,2.26394 -6.2754,-1.74751 -6.2754,-6.27539 0,-0.92993 0.3036,-1.41365 0.8476,-1.46093 z m 175.9492,12.88085 c 1.8658,10e-6 2.4481,1.52686 1.295,3.39258 -1.1531,1.86573 -3.6226,3.39258 -5.4883,3.39258 -1.8657,0 -2.448,-1.52685 -1.2949,-3.39258 1.1531,-1.86572 3.6225,-3.39258 5.4882,-3.39258 z m -214.1113,64.45313 c -1.8657,0 -3.3906,2.38034 -3.3906,5.28906 0,2.90892 1.5249,4.3445 3.3906,3.19141 1.8657,-1.15306 3.3926,-3.53344 3.3926,-5.28906 0,-1.75563 -1.5269,-3.19141 -3.3926,-3.19141 z m 159.9746,7.11523 c 2.6572,0.0166 6.6976,2.20096 12.2324,6.55469 6.8685,5.40272 9.4203,5.94931 11.8536,2.54297 2.1344,-2.98809 2.5988,-2.03284 1.4882,3.06445 -1.4444,6.62979 -0.7417,7.07375 6.711,4.24024 10.7236,-4.07717 11.4414,-4.00223 10.4258,1.07617 -0.4739,2.36939 1.7727,3.80113 5.0898,3.24414 3.265,-0.54822 5.9355,0.59545 5.9355,2.54297 1e-4,1.94751 2.3429,3.54101 5.2071,3.54101 4.2356,0 4.4983,1.32806 1.4043,7.10938 -3.1644,5.91262 -2.6133,7.94118 3.2734,12.06445 7.3377,5.13948 9.4929,16.2475 3.832,19.7461 -1.7842,1.10271 -2.3887,4.23196 -1.3437,6.95507 1.0623,2.76828 -0.4992,5.8718 -3.541,7.03907 -2.9922,1.14822 -5.4395,3.56002 -5.4395,5.35937 0,4.40115 -8.8017,12.96289 -13.3261,12.96289 -1.999,0 -3.6348,1.52686 -3.6348,3.39258 0,1.86573 -3.1006,3.39258 -6.8906,3.39258 -3.7901,0 -7.7135,2.13919 -8.7168,4.75391 -1.0034,2.61471 -4.9248,5.56549 -8.7149,6.55664 -3.7901,0.99114 -5.8952,3.41284 -4.6777,5.38281 1.3847,2.24046 0.069,2.75957 -3.5137,1.38476 -10.773,-4.13404 -3.0807,6.81184 12.4043,17.65039 10.3828,7.26732 19.8497,18.82271 30.6621,37.42774 8.6029,14.8032 15.0005,28.05969 14.2168,29.45898 -0.7837,1.3993 -0.037,2.54297 1.6602,2.54297 1.6969,0 7.8299,7.63426 13.6289,16.96289 10.3539,16.65589 10.4083,16.96699 3.0508,17.38282 -9.9924,0.56473 -55.3677,-0.64467 -70.2481,-1.87305 -6.53,-0.53904 -13.5388,0.31713 -15.5762,1.90234 -2.0373,1.58533 -4.3852,2.20068 -5.2168,1.36914 -0.8315,-0.83157 -7.5605,-1.83941 -14.9531,-2.24023 -26.4378,-1.4335 -40.1342,-13.07176 -40.9277,-34.77539 -0.2814,-7.69633 -1.6529,-19.65373 -3.0469,-26.57227 -2.161,-10.72543 -1.2185,-14.14073 6.3906,-23.18359 4.9083,-5.83314 8.0929,-11.94986 7.0782,-13.5918 -1.0148,-1.6419 5.8441,-10.96258 15.2422,-20.71289 15.4801,-16.06038 22.3655,-26.87998 13.6953,-21.52148 -3.5433,2.18978 -4.6727,-2.19664 -3.4532,-13.41016 0.6203,-5.70225 -0.034,-5.99903 -4.6972,-2.12891 -3.4064,2.82698 -5.418,3.1273 -5.418,0.8086 0,-4.82253 11.959,-11.17934 15.1426,-8.04883 1.3597,1.33368 1.9751,-2.34541 1.375,-8.17578 -0.6001,-5.83034 0.911,-13.01473 3.3594,-15.96484 2.4483,-2.95008 3.6579,-6.64866 2.6875,-8.21876 -0.9704,-1.57009 -0.4708,-4.94521 1.1093,-7.50195 1.739,-2.81363 1.0385,-7.44961 -1.7754,-11.74414 -4.2759,-6.526 -2.331,-16.52414 3.0743,-15.80078 7.065,0.94552 8.9492,-0.42142 8.9492,-6.49414 0,-4.31917 1.2744,-6.46971 3.9316,-6.45313 z m -166.6504,22.82813 c 2.2452,0.1713 4.9164,3.01427 9.1856,9.29687 7.3118,10.76028 7.6727,12.9176 3.6679,21.96485 -2.4423,5.51777 -5.5955,10.03125 -7.0058,10.03125 -3.7871,0 -3.1136,-4.87666 1.2793,-9.26953 4.5666,-4.56658 1.1375,-15.85762 -3.875,-12.75977 -1.9094,1.18005 -2.593,3.56593 -1.5195,5.30274 1.0733,1.73676 0.4988,3.1582 -1.2774,3.1582 -7.2756,0 -9.8143,-19.92206 -3.3613,-26.375 0.9538,-0.95382 1.8857,-1.42747 2.9062,-1.34961 z m -0.1074,7.37109 c -1.8657,0 -3.3926,2.38038 -3.3926,5.28907 0,2.90891 1.5269,4.3445 3.3926,3.1914 1.8657,-1.15306 3.3926,-3.53343 3.3926,-5.28906 0,-1.75559 -1.5269,-3.19141 -3.3926,-3.19141 z m 520.7227,261.42969 c 0.6407,0.0113 1.7385,0.37108 3.3164,0.97656 3.1359,1.2034 6.3408,2.1875 7.1211,2.1875 0.7802,0 1.4179,2.2893 1.4179,5.08789 0,7.27503 -4.4067,6.28088 -9.6953,-2.1875 -2.7665,-4.42992 -3.5698,-6.08941 -2.1601,-6.06445 z m -1.9688,13.33984 c 1.6076,0 3.8011,2.29126 4.875,5.08985 1.0739,2.79859 0.6369,5.08789 -0.9707,5.08789 -1.6075,0 -3.801,-2.2893 -4.875,-5.08789 -1.0739,-2.79859 -0.6369,-5.08985 0.9707,-5.08985 z m -37.0039,30.54688 c 4.7728,0.031 10.5131,1.26494 11.8184,3.37695 1.153,1.86573 0.591,3.39063 -1.2481,3.39063 -1.839,0 -3.8362,2.45828 -4.4394,5.46289 -0.9526,4.7447 -1.8774,4.59801 -7.0332,-1.11524 -3.2651,-3.61795 -5.9375,-7.60113 -5.9375,-8.85351 0,-1.58201 3.1277,-2.28585 6.8398,-2.26172 z m -367.6797,42.85742 c 0.5947,-0.007 1.1999,-6.3e-4 1.8203,0.0156 18.2291,0.47799 33.3083,7.31034 46.086,20.88281 11.322,12.02615 13.6873,20.4064 7.5058,26.58789 -2.4277,2.42952 -2.4153,6.41153 0.039,12.86719 3.0401,7.99608 2.3216,10.81163 -4.9629,19.46875 -5.6737,6.7429 -8.5343,14.28075 -8.5684,22.58203 -0.028,6.8534 -1.1742,14.1573 -2.5449,16.2305 v 0 c -6.4642,9.777 -56.6825,6.7893 -68.916,-4.0996 -2.95,-2.6257 -6.348,-3.7888 -7.5508,-2.5859 -1.2028,1.2027 -4.2517,0.4733 -6.7754,-1.6211 -2.5237,-2.0945 -7.6784,-4.2808 -11.4571,-4.8575 -11.4023,-1.74013 -23.8562,-11.73231 -25.5292,-20.48437 -0.8668,-4.53404 0.8907,-16.45902 3.9062,-26.49805 4.7966,-15.96861 7.4114,-19.31309 20.9023,-26.73242 8.4814,-4.66431 22.0716,-13.78977 30.1993,-20.2793 10.6682,-8.51804 16.9276,-11.36802 25.8476,-11.47656 z m -236.1914,82.63867 c 11.8128,0 12.2127,0.93707 4.334,10.13868 -7.9782,9.31782 -14.5098,8.57082 -14.5098,-1.65821 0,-7.16137 1.5822,-8.48047 10.1758,-8.48047 z m 590.1406,16.96094 c 1.8072,0 2.4079,2.2893 1.334,5.08786 -1.0739,2.7986 -2.5519,5.0899 -3.2851,5.0899 -0.7333,0 -1.334,-2.2913 -1.334,-5.0899 0,-2.79856 1.478,-5.08786 3.2851,-5.08786 z m -35.3925,22.48246 c 1.1452,-0.092 2.2992,0.4541 3.6347,1.5625 4.7707,3.9592 5.2489,20.0547 0.5957,20.0547 -1.4588,-1e-4 -2.6523,2.2893 -2.6523,5.0878 0,7.9281 -5.2842,5.9911 -9.6211,-3.5273 -3.1815,-6.9826 -2.8823,-10.211 1.5801,-17.0215 2.6693,-4.0739 4.5542,-6.003 6.4629,-6.1562 z m -394.6719,83.0839 c 7.5697,0.081 7.9697,1.7172 7.6543,8.9219 -0.2246,5.1305 -2.0547,9.3281 -4.0684,9.3281 -2.0137,0 -4.8058,1.1457 -6.2051,2.545 -3.0453,3.0452 -3.862,2.9733 -15.832,-1.3985 -8.9947,-3.2851 -12.9043,-9.6269 -5.9355,-9.6269 1.8657,0 3.3925,-2.043 3.3925,-4.5391 0,-2.9976 4.9326,-4.725 14.5293,-5.0879 2.5897,-0.098 4.718,-0.1611 6.4649,-0.1426 z m -31.3711,81.0059 c 1.9759,0 3.5918,1.5269 3.5918,3.3926 0,1.8657 -0.6733,3.3926 -1.4961,3.3926 -0.8227,0 -2.4387,-1.5269 -3.5918,-3.3926 -1.1531,-1.8657 -0.4797,-3.3926 1.4961,-3.3926 z m -48.7149,31.502 c 4.2368,9e-4 5.3597,1.7746 6.5274,6.5254 2.7248,11.0861 -9.0373,31.9178 -23.6035,41.8027 -6.7827,4.6028 -13.6245,8.3691 -15.2051,8.3691 -4.999,0 -6.9366,-15.2323 -3.4785,-27.3457 4.8663,-17.0463 13.4781,-25.8483 27.7558,-28.3672 3.509,-0.619 6.0782,-0.9848 8.0039,-0.9843 z m -67.1972,41.9531 c 1.8194,0.067 3.7059,0.8729 5.7441,2.3633 5.3464,3.9093 5.6061,5.9879 2.0762,16.6836 -2.2179,6.7202 -5.7881,12.8043 -7.9336,13.5195 -2.301,0.767 -3.5581,7.1181 -3.0645,15.4844 0.8757,14.8391 -0.9928,16.6995 -9.875,9.8359 -8.2454,-6.3715 -10.2702,-18.8568 -3.664,-22.5859 4.1923,-2.3665 4.6441,-4.1608 1.7793,-7.0567 -2.8615,-2.8924 -2.6277,-6.3164 0.918,-13.4238 5.161,-10.3455 9.3698,-14.9922 14.0195,-14.8203 z m 62.5312,31.1699 c 9.1946,0.04 20.9515,1.9841 28.3731,5.5059 11.545,5.4784 18.1269,11.9902 12.1211,11.9902 -1.8204,0 -4.0785,-1.9081 -5.0196,-4.2402 -3.9437,-9.7739 -1.8755,6.71 2.3731,18.9121 5.7577,16.5362 3.546,28.2608 -5.8047,30.7695 -16.8545,4.5219 -28.0809,-2.5835 -24.791,-15.6914 2.7909,-11.12 -3.368,-16.2381 -22.1387,-18.3945 -19.6836,-2.2614 -25.0941,-6.9465 -17.5937,-15.2344 3.1348,-3.4639 8.389,-6.2988 11.6757,-6.2988 3.2869,0 6.5452,-1.7098 7.2422,-3.8008 0.809,-2.427 6.4112,-3.5487 13.5625,-3.5176 z m -124.0058,44.6328 c 4.5242,0 12.1746,19.6963 9.3965,24.1914 -1.6224,2.625 -1.0012,3.0873 1.8105,1.3496 3.1831,-1.9672 3.6582,-0.6895 1.8574,4.9844 -1.3317,4.1958 -2.7852,10.1122 -3.2304,13.1465 -0.6129,4.1764 -4.664,5.5399 -16.6739,5.6113 -15.2366,0.091 -22.5,-3.025 -22.5,-9.6504 0,-1.7101 3.1405,-2.2868 6.9785,-1.2832 5.5925,1.4625 6.2164,0.9068 3.1426,-2.7968 -2.9431,-3.5464 -2.0493,-7.0378 3.8418,-15.0059 4.7926,-6.482 8.5507,-8.9713 10.002,-6.6231 3.3252,5.3803 7.1118,-1.7687 4.5176,-8.5292 -1.1386,-2.967 -0.7525,-5.3946 0.8574,-5.3946 z m 41.7344,24.9883 c 2.6067,0.127 4.0576,1.7806 5.1972,5.3711 1.2037,3.7927 1.2357,8.4359 0.072,10.3184 -3.5301,5.7117 -11.4258,3.8435 -15.4375,-3.6524 -4.3013,-8.037 -4.2062,-8.2257 5.8164,-11.3027 1.7416,-0.5347 3.1667,-0.7921 4.3516,-0.7344 z m 98.7382,2.1504 c 1.7556,0 3.1914,1.5268 3.1914,3.3926 0,1.8657 -2.3803,3.3925 -5.289,3.3925 -2.9086,0 -4.3445,-1.5268 -3.1914,-3.3925 1.1531,-1.8658 3.5334,-3.3926 5.289,-3.3926 z m 695.20511,13.5683 c 1.86573,1e-4 3.39258,1.5269 3.39258,3.3926 0,1.8657 -1.52685,3.3926 -3.39258,3.3926 -1.86573,0 -3.39063,-1.5269 -3.39063,-3.3926 0,-1.8657 1.5249,-3.3926 3.39063,-3.3926 z m -692.80471,1.2383 c 2.1555,0.1652 4.5889,2.0235 6.7832,5.5371 2.3334,3.7364 3.085,6.617 1.6699,6.4004 -9.8379,-1.5046 -14.6466,-4.0952 -13.5742,-7.3125 1.0874,-3.2622 2.9656,-4.7901 5.1211,-4.625 z m -177.498,6.6875 c 0.5416,-0.054 1.1949,0.1223 1.8945,0.5547 1.8657,1.1531 3.3906,2.771 3.3906,3.5938 0,0.8227 -1.5249,1.4941 -3.3906,1.4941 -1.8657,0 -3.3926,-1.616 -3.3926,-3.5918 0,-1.2349 0.5954,-1.9614 1.4981,-2.0508 z m 863.31833,2.252 c 1.97587,0 3.59375,1.5249 3.59375,3.3906 0,1.8657 -0.67332,3.3926 -1.49609,3.3926 -0.82276,0 -2.44065,-1.5269 -3.59375,-3.3926 -1.1531,-1.8657 -0.47973,-3.3906 1.49609,-3.3906 z m -623.23433,0.7461 c 1.7584,0.033 3.8477,0.2713 6.4004,0.6679 18.5021,2.8753 43.8622,18.0882 41.2968,24.7735 -1.3929,3.6298 -0.7658,4.6341 1.875,3.0019 2.7545,-1.7023 3.9688,1.3514 3.9688,9.9825 0,9.2382 -1.2149,11.9706 -4.7266,10.623 -2.6,-0.9977 -8.2912,1.9793 -12.6465,6.6152 -4.3552,4.636 -10.3727,7.7861 -13.3711,7.002 -7.4993,-1.9611 -16.9882,24.0566 -14.459,39.6426 1.5287,9.4199 0.024,13.9953 -7.832,23.8418 -5.347,6.7013 -10.4851,12.1367 -11.418,12.08 -10.8364,-0.6583 -25.4982,-23.9236 -19.1054,-30.3164 2.1125,-2.1125 3.8813,-4.9088 3.9297,-6.2148 0.049,-1.306 2.8455,-6.4978 6.2168,-11.5371 8.1163,-12.1324 4.8467,-21.0173 -10.6934,-29.0567 -14.784,-7.6482 -18.7083,-19.2014 -6.7617,-19.9062 28.1361,-1.6598 29.7932,-2.4213 29.8008,-13.6777 0,-5.9081 -1.7278,-11.3207 -3.8477,-12.0274 -2.74,-0.9133 -2.4952,-3.5168 0.8477,-9.0058 2.9462,-4.8377 5.2499,-6.5858 10.5254,-6.4883 z m 622.82222,18.6465 c 8.58597,-0.1529 19.81331,7.0617 22.67188,18.4511 1.90526,7.5911 1.14286,8.1773 -10.14258,7.8028 -9.26611,-0.3075 -11.75744,0.759 -10.34961,4.4277 4.81505,12.5478 5.70817,21.1621 2.19336,21.1621 -2.068,0 -3.75976,2.2893 -3.75976,5.0879 0,2.7986 2.24042,5.0879 4.98047,5.0879 2.81291,0 4.20917,2.0135 3.20703,4.625 -1.2327,3.2124 2.16887,5.3034 11.13281,6.8418 13.66481,2.3451 23.72223,9.4644 30.74414,21.7637 3.99632,6.9997 3.61384,7.4765 -5.9707,7.4765 -6.04078,0 -12.61957,-2.7804 -16.04688,-6.7832 -6.23025,-7.2764 -16.12572,-8.9618 -19.60156,-3.3379 -1.17188,1.8962 -3.78292,2.4261 -5.80274,1.1778 -2.01985,-1.2484 -5.34932,-0.1289 -7.39843,2.4882 -2.19508,2.8037 -8.18724,4.3281 -14.58594,3.709 -13.96278,-1.3508 -17.39691,-10.8522 -8.50977,-23.5449 10.18678,-14.549 10.16859,-18.0073 -0.15625,-28.332 -7.93619,-7.9363 -9.00939,-10.8323 -6.05659,-16.3496 1.97347,-3.6876 7.77487,-8.7042 12.89058,-11.1485 5.11574,-2.4442 9.7676,-7.7028 10.33789,-11.6855 0.87123,-6.0844 5.07108,-8.8282 10.22265,-8.9199 z m -782.29492,11.1367 c 3.3531,0 9.4805,11.9134 9.4805,18.4336 0,7.0064 -15.5566,7.0832 -18.2403,0.09 -2.0273,-5.2832 4.2342,-18.5234 8.7598,-18.5234 z m -58.1406,8.2949 c 1.1995,-0.1467 2.4636,1.5739 3.791,5.1621 2.8573,7.724 2.9985,7.7435 10.1934,1.4277 6.5905,-5.7852 7.0864,-5.8293 5.1308,-0.4668 -1.3844,3.7962 -0.5086,5.9356 2.4277,5.9356 2.5255,0 7.0923,3.8162 10.1485,8.4805 6.3568,9.7017 2.8956,11.3078 -5.7461,2.666 -3.6298,-3.6298 -5.8164,-4.2684 -5.8164,-1.6973 0,2.2655 -2.2893,4.1192 -5.0879,4.1192 -2.7986,0 -5.0879,-1.6482 -5.0879,-3.6622 0,-2.2679 -3.7095,-2.8453 -9.7461,-1.5195 -7.0623,1.5512 -10.2965,0.706 -11.7441,-3.0664 -1.223,-3.1869 -4.3518,-4.4485 -8.0645,-3.2519 -4.1453,1.336 -3.4094,-0.2073 2.3223,-4.879 4.6121,-3.7591 9.4665,-6.1669 10.789,-5.3496 1.3226,0.8174 3.5255,-0.3258 4.8946,-2.541 0.5183,-0.8387 1.0504,-1.2907 1.5957,-1.3574 z m 2.9687,22.2344 c 1.9759,0 3.5918,1.5268 3.5918,3.3926 0,1.8657 -0.6733,3.3925 -1.4961,3.3925 -0.8227,0 -2.4387,-1.5268 -3.5918,-3.3925 -1.153,-1.8658 -0.4797,-3.3926 1.4961,-3.3926 z m 62.7012,12.2207 c 2.5693,0.1823 4.8523,2.2719 8.4961,6.9043 7.7463,9.8478 8.5957,13.4258 3.8809,16.3398 -1.9283,1.1917 -1.9283,6.175 0,12.8985 3.9616,13.8121 3.9577,16.9947 -0.016,14.539 -3.9667,-2.4515 -5.5882,0.303 -8.6933,14.7656 -2.2501,10.4799 -1.8449,11.3555 4.4961,9.6973 4.2643,-1.1151 9.1096,0.5427 12.4824,4.2695 4.6638,5.1535 4.8304,7.1847 1.0742,13.1993 -2.4419,3.9101 -5.2175,7.085 -6.168,7.0586 -4.6031,-0.1384 -9.3683,-5.8596 -11.2578,-13.5176 -1.1508,-4.6643 -5.4347,-10.5469 -9.5195,-13.0723 -6.4065,-3.9607 -7.8448,-3.8446 -10.4707,0.8477 -1.6743,2.9918 -6.4602,5.4414 -10.6348,5.4414 -5.2504,0 -7.7541,2.1705 -8.1211,7.041 -0.4386,5.8231 0.3315,6.3256 4.4492,2.9082 2.7384,-2.2724 5.8583,-3.2531 6.9336,-2.1777 1.0754,1.0753 -1.0375,5.1676 -4.6953,9.0937 l -6.6504,7.1387 -5.5625,-8.4903 c -3.0598,-4.6699 -5.5644,-10.0725 -5.5644,-12.0039 0,-1.9313 -1.2696,-3.5097 -2.8223,-3.5097 -4.1884,0 -10.3869,-22.6962 -8.3379,-30.5313 1.0756,-4.113 0.1044,-6.7832 -2.4668,-6.7832 -5.2714,0 -20.2834,-17.0809 -20.291,-23.084 0,-3.1643 4.5897,-4.1317 16.1094,-3.3925 15.31,0.9824 16.1324,1.5414 16.5039,11.2109 0.6614,17.2098 1.0156,17.8934 11.1094,21.4121 6.8738,2.3962 10.9291,2.2916 13.5683,-0.3476 4.2287,-4.2287 5.1457,-13.0447 1.2207,-11.7364 -1.3993,0.4665 -2.9079,-0.6772 -3.3535,-2.5429 -0.4455,-1.8658 1.0793,-3.4333 3.3906,-3.4825 9.1469,-0.1951 13.0772,-5.6642 10.9688,-15.2636 -1.641,-7.4714 -0.6032,-10.4247 4.6504,-13.2364 2.105,-1.1266 3.7494,-1.7031 5.291,-1.5937 z m 225.0723,11.0449 c 8.2729,0.1374 18.497,5.38 23.7539,13.3555 4.3264,6.5638 4.4324,9.0938 0.6758,16.1133 -2.4511,4.5797 -6.4894,8.3261 -8.9727,8.3261 -6.6777,0 -5.4774,6.0316 1.9961,10.0313 4.7272,2.5298 7.0503,2.3304 8.4805,-0.7285 1.569,-3.3561 2.3704,-3.3561 3.9394,0 1.4122,3.0205 3.7722,3.2481 8.3379,0.8046 9.3236,-4.9898 15.8868,7.8114 9.8184,19.1504 -2.8695,5.3617 -7.2397,8.0136 -13.0664,7.9278 -9.5639,-0.141 -18.8051,-8.1572 -15.5235,-13.4668 1.1335,-1.834 -1.5806,-6.7763 -6.0312,-10.9824 -4.4507,-4.2062 -10.3608,-12.2271 -13.1348,-17.8243 -2.774,-5.5971 -7.2328,-13.7041 -9.9082,-18.0156 -4.3432,-6.9992 -4.2105,-8.3242 1.2344,-12.3652 2.2256,-1.6518 5.1631,-2.3799 8.4004,-2.3262 z m 452.3886,15.0938 c 1.1133,0.055 1.8183,0.6929 2.2227,1.9062 0.7105,2.1315 2.6881,3.0136 4.3945,1.959 1.7064,-1.0546 3.1016,-0.6677 3.1016,0.8594 0,4.4821 -11.3661,9.9544 -17.8086,8.5742 -7.9527,-1.7037 -7.4774,-4.9644 1.543,-10.5977 3.0101,-1.8799 5.1155,-2.7723 6.5468,-2.7011 z m -780.8691,2.3476 c 1.9758,0 3.5918,1.5269 3.5918,3.3926 0,1.8657 -0.6733,3.3926 -1.4961,3.3926 -0.8228,0 -2.4387,-1.5269 -3.5918,-3.3926 -1.1531,-1.8657 -0.4797,-3.3926 1.4961,-3.3926 z m 62.7598,7.9258 c 0.5416,-0.054 1.1929,0.1223 1.8925,0.5547 1.8658,1.1531 3.3926,2.771 3.3926,3.5937 0,0.8228 -1.5268,1.4961 -3.3926,1.4961 -1.8657,0 -3.3925,-1.6179 -3.3925,-3.5937 0,-1.2349 0.5973,-1.9615 1.5,-2.0508 z m 11.4218,19.2207 c -4.3718,-0.014 -5.3501,5.0527 -2.455,12.7129 3.9299,10.3984 5.5906,9.5813 5.1601,-2.5371 -0.1986,-5.5929 -1.4159,-10.1724 -2.7051,-10.1758 z m 769.793,8.2754 c 2.31894,0.084 5.01572,1.6509 7.96485,4.8164 3.76188,4.0378 5.90965,8.8479 4.77148,10.6894 -1.13816,1.8416 -0.50786,3.3477 1.40235,3.3477 1.91017,0 5.24646,3.3151 7.41406,7.3652 3.27379,6.1172 2.88104,8.1397 -2.32617,11.9473 -3.44772,2.521 -8.12349,3.8732 -10.38867,3.0039 -2.26515,-0.8692 -4.63679,-0.023 -5.27149,1.8809 -2.73831,8.2151 -12.07881,-9.9249 -12.00581,-23.3164 0.07,-12.928 3.3377,-19.9193 8.4394,-19.7344 z m -752.1836,18.8535 c 1.8657,0 3.3906,1.5269 3.3906,3.3926 0,1.8657 -1.5249,3.3926 -3.3906,3.3926 -1.8657,0 -3.3926,-1.5269 -3.3926,-3.3926 0,-1.8657 1.5269,-3.3926 3.3926,-3.3926 z m 181.5332,18.9824 c 2.3917,-0.017 4.2769,1.0953 6.6172,3.4356 6.4889,6.489 6.4833,8.1729 -0.074,17.5351 -6.412,9.1544 -8.9775,9.3655 -16.2442,1.336 -7.9318,-8.7646 -6.9724,-15.8339 2.75,-20.2637 2.9251,-1.3327 5.091,-2.0299 6.9512,-2.043 z"
           transform="scale(0.26458333)"
           id="path5448" />
        <path
           sodipodi:nodetypes="ccscsccccscccsccsscsssssccccccsssscsssscsscscssscsssssccccccccccscsscscccccscccccccsscccccccccccssscccccsssccccsscscccccccccsccccssccccsccccccccccsccccscccccscccssscccsccscccccccsccccscssccsccccccccscccscscscscccscscscscccssssscsccsscccccccssccscccccccccsscssccsccssscscsccscccssccsccccsccccccsccccc"
           inkscape:connector-curvature="0"
           style="fill:#000000;stroke-width:3.39222646"
           d="m -1455.9277,152.61328 c -1.8132,0.0782 -4.3571,0.63496 -7.2813,1.6543 -5.5971,1.95118 -10.1758,4.92421 -10.1758,6.60742 0,1.68321 -1.1456,2.87915 -2.5449,2.6582 -6.8724,-1.0851 -11.0234,0.85767 -11.0234,5.15821 0,2.61607 -4.7082,6.39823 -10.4629,8.40429 -9.4214,3.2843 -10.2393,4.66925 -8.211,13.9043 1.6774,7.63699 0.8989,10.77375 -3.0449,12.28711 -4.0564,1.5566 -4.4876,3.54207 -1.8457,8.47851 2.0062,3.74843 2.1319,6.44532 0.3008,6.44532 -1.7317,0 -4.0276,-2.2893 -5.1016,-5.08789 -1.0739,-2.79859 -3.908,-4.9676 -6.2988,-4.82032 -3.4047,0.20977 -3.4287,0.63838 -0.1074,1.97852 5.7979,2.33949 5.3782,11.32227 -0.5293,11.32227 -3.1132,0 -4.1511,2.37649 -2.9844,6.83789 1.71,6.53899 8.4448,13.62904 7.4375,7.83007 -1.2265,-7.06019 0.836,-10.62126 7.1016,-12.25976 4.0591,-1.06148 6.7832,-4.62583 6.7832,-8.875 0,-3.90611 1.1456,-6.92212 2.5449,-6.70117 6.9972,1.10483 11.0254,-0.90102 11.0254,-5.49024 0,-2.79859 2.2893,-5.08789 5.0879,-5.08789 2.7986,0 5.0879,-1.52685 5.0879,-3.39258 0,-1.86572 3.0537,-3.39257 6.7851,-3.39257 3.7315,0 6.7852,-2.16626 6.7852,-4.81446 0,-3.88958 2.3413,-4.16844 12.1894,-1.44922 6.7051,1.85133 12.9663,2.59236 13.9141,1.64453 3.0664,-3.0664 28.686,26.28543 34.4219,39.4375 3.0628,7.02278 7.2683,12.1175 9.3457,11.32032 2.5345,-0.97255 3.613,4.87106 3.2773,17.76172 -0.384,14.75992 -2.6292,22.34009 -9.6875,32.71875 -5.0526,7.42956 -9.1855,11.62694 -9.1855,9.32812 0,-2.29882 -2.2913,-4.17969 -5.0899,-4.17969 -2.7986,0 -5.0879,1.52686 -5.0879,3.39258 0,1.86573 -2.2195,3.39258 -4.9335,3.39258 -6.447,0 -10.0717,19.51443 -5.67,30.5293 1.8639,4.66435 3.4852,6.57239 3.6035,4.24023 0.1183,-2.33216 3.2686,-4.24023 7,-4.24023 3.7315,0 6.7852,-1.52686 6.7852,-3.39258 0,-1.86573 1.616,-3.39258 3.5918,-3.39258 1.9759,0 2.5907,1.624 1.3652,3.60742 -3.0854,4.99223 7.949,16.37817 21.2637,21.94141 6.1015,2.54937 11.0938,7.09376 11.0938,10.09765 0,3.00394 1.5268,4.5183 3.3925,3.36524 1.8658,-1.1531 3.3926,-0.5708 3.3926,1.29492 0,1.86573 -1.5268,4.33714 -3.3926,5.49024 -1.8657,1.15305 -3.3925,6.58518 -3.3925,12.07226 0,5.48704 -1.5269,9.97656 -3.3926,9.97656 -1.8657,0 -3.3926,2.24242 -3.3926,4.98243 0,3.03609 -1.9884,4.21867 -5.0879,3.02929 -3.721,-1.4279 -5.0879,0.4234 -5.0879,6.89063 0,4.86395 -1.5268,8.84375 -3.3926,8.84375 -1.8657,0 -3.3925,2.2893 -3.3925,5.08789 0,2.79859 -1.5269,5.08789 -3.3926,5.08789 -1.8657,0 -3.3906,-2.2893 -3.3906,-5.08789 0,-6.10307 -10.1302,-6.93791 -10.2852,-0.84766 -0.061,2.38855 -2.2825,1.36341 -5.0879,-2.3457 -4.9301,-6.51821 -5.0308,-6.51821 -9.9609,0 -4.3568,5.76019 -4.9954,5.8675 -5.0899,0.84961 -0.059,-3.15489 1.4929,-6.72652 3.4493,-7.93555 2.4571,-1.51873 2.3997,-3.59347 -0.1876,-6.71094 -2.8318,-3.41208 -2.252,-5.40561 2.379,-8.17578 5.8773,-3.51575 5.8668,-3.86342 -0.2618,-8.60937 -5.5988,-4.33603 -7.585,-4.32398 -16.1132,0.0859 -10.1046,5.22531 -13.5504,10.44123 -4.6387,7.02148 3.4919,-1.33996 5.0898,0.2056 5.0898,4.92578 0,3.78301 1.5249,5.93435 3.3907,4.78125 1.8657,-1.1531 3.3925,1.04517 3.3925,4.88672 0,3.84159 -1.5268,6.98633 -3.3925,6.98633 -5.9723,0 -3.6285,13.43172 3.3925,19.44336 3.7315,3.19494 6.7852,8.98087 6.7852,12.85742 0,3.87651 1.3617,8.49904 3.0273,10.27148 1.6657,1.77245 2.2772,8.04453 1.3575,13.93946 -1.7652,11.31288 -6.1838,13.93233 -28.1309,16.67578 -11.9728,1.49665 -45.8981,-4.67417 -42.7891,-7.78321 1.5793,-1.57935 -0.6603,-4.96693 -10.6386,-16.09375 -2.3322,-2.60054 -4.2403,-7.01781 -4.2403,-9.8164 0,-2.79859 -2.4381,-7.52608 -5.4179,-10.50586 -2.9798,-2.97982 -4.5717,-7.61968 -3.5391,-10.31055 1.0326,-2.69095 0.5903,-5.68814 -0.9824,-6.66015 -2.9507,-1.82359 -8.6972,-25.03674 -7.4727,-30.18555 0.3795,-1.59568 -0.7804,-4.67024 -2.5762,-6.83399 -6.5922,-7.9432 -6.1914,-48.3115 0.4844,-48.82226 24.4922,-1.87385 31.3116,-3.88276 30.3809,-8.94922 -0.6482,-3.52842 1.427,-5.42578 5.9355,-5.42578 4.018,0 6.9336,-2.22225 6.9336,-5.28711 0,-2.90873 -1.5238,-4.34667 -3.3867,-3.19531 -1.9497,1.20499 -3.0302,-1.18725 -2.5449,-5.63477 0.7619,-6.98317 -0.3965,-7.62852 -12.0469,-6.70703 -22.5407,1.7828 -23.8985,-2.18846 -17.5176,-51.25977 1.6689,-12.8343 -3.4523,-17.86015 -7.4863,-7.34765 -1.6724,4.35825 -2.6541,4.51799 -5.2031,0.84765 -2.2634,-3.25899 -2.6759,-2.62686 -1.4766,2.25977 0.9158,3.73145 2.6897,12.12621 3.9434,18.65625 2.1808,11.35952 2.0421,11.58099 -3.2305,5.08984 -3.8147,-4.69629 -5.2637,-5.21948 -4.707,-1.69726 0.4422,2.79859 -0.8658,8.14159 -2.9063,11.87305 -2.0405,3.73145 -4.7838,13.26404 -6.0957,21.18359 -1.3119,7.91955 -3.779,15.25975 -5.4824,16.3125 -1.7034,1.05275 -3.0957,4.58986 -3.0957,7.85937 0,3.26956 -3.0537,9.22133 -6.7852,13.22657 -8.0199,8.6084 -8.7253,12.42916 -1.8047,9.77343 2.7389,-1.05097 5.8892,-0.44 7,1.35743 1.1109,1.79743 -0.1976,4.11999 -2.9082,5.16015 -2.9186,1.11999 -4.2296,4.56704 -3.2128,8.45508 0.9442,3.61092 0.011,6.56641 -2.0704,6.56641 -2.0833,0 -3.789,4.5786 -3.789,10.17578 0,5.59718 -1.6338,10.17773 -3.6328,10.17773 -6.6344,0 -12.9516,9.18749 -11.1231,16.17969 0.9912,3.79045 -1.4034,14.14105 -5.3222,23 l -7.125,16.10742 6.8183,4.77344 c 8.0469,5.63622 8.9033,11.17578 1.7285,11.17578 -2.7986,0 -5.0879,2.97649 -5.0879,6.61523 0,3.63874 -2.1683,7.83808 -4.8183,9.33008 -2.6501,1.49201 -5.8263,7.29153 -7.0586,12.88867 -1.6446,7.46982 -1.3157,8.84837 1.2402,5.18555 1.9152,-2.74454 4.7093,-3.76345 6.207,-2.26562 1.4979,1.49779 -0.1,4.78666 -3.5488,7.30859 -3.4489,2.52189 -5.3297,6.10779 -4.1797,7.96875 1.1502,1.86093 0.4507,4.39734 -1.5547,5.63672 -2.1466,1.32673 -2.7591,6.65434 -1.4902,12.95508 l 2.1543,10.70117 -8.6191,-10.17578 c -4.7405,-5.59718 -8.673,-8.26966 -8.7403,-5.9375 -0.067,2.33215 -2.3095,4.24023 -4.9824,4.24023 -2.6729,0 -5.8218,3.03234 -6.998,6.73828 -2.5883,8.15479 -42.9185,48.83828 -56.1797,56.67188 -5.2253,3.0867 -10.2414,8.44496 -11.1465,11.90625 -0.9052,3.46125 -2.9205,5.89489 -4.4805,5.4082 -6.1221,-1.90987 -55.416,44.95693 -55.416,52.6875 0,3.11875 -1.1662,5.66992 -2.5918,5.66992 -3.5409,0 -14.124,24.96531 -19.8418,46.8086 -7.9828,35.32112 -10.7132,53.70375 -11.6523,65.98242 -1.275,33.30603 -7.5384,120.98242 -9.7539,136.53711 -1.5945,11.19432 -5.4196,39.43624 -8.5,62.75781 -3.0805,23.32155 -8.5293,58.42945 -12.1094,78.01955 -3.5801,19.5901 -5.9107,44.0139 -5.1797,54.2754 0.8422,11.8222 -1.2189,28.5341 -5.6269,45.6152 -5.2648,20.4007 -6.0515,28.4053 -3.2344,32.9161 2.6598,4.259 2.6751,6.6082 0.057,8.2265 -2.0156,1.2456 -2.8211,6.4782 -1.791,11.6289 1.0302,5.1505 0.9975,10.2407 -0.072,11.3106 -2.2478,2.248 -3.759,20.551 -5.6757,68.7344 -0.7496,18.8434 -3.1428,39.6538 -5.3184,46.246 -2.1757,6.5923 -3.6492,13.3083 -3.2754,14.9258 0.3742,1.6174 -1.2477,7.522 -3.6035,13.1192 -2.3558,5.5971 -5.0094,16.2812 -5.8965,23.7441 -0.8871,7.4629 -2.868,16.622 -4.4023,20.3535 -7.7728,18.9025 -10.6649,28.4523 -9.8907,32.666 0.4698,2.5567 -0.9897,10.7559 -3.2441,18.2188 -4.3616,14.438 -10.7142,46.2171 -14.1133,69.2012 50.6148,19.0858 89.8149,31.4549 144.5743,44.1016 125.7071,29.0321 250.0759,45.7671 382.7644,46.614 215.5539,-10.3614 368.1647,-38.0048 538.98162,-98.6922 -1.63426,-4.111 -6.64705,-7.7275 -7.81445,-9.6973 -3.31729,-5.5971 -1.19224,-13.5332 -3.52734,-20.9961 -2.33507,-7.4629 -5.45874,-15.1135 -6.94141,-17.0019 -1.48271,-1.8883 -4.9983,-12.5744 -7.8125,-23.7461 -2.8142,-11.1717 -10.67284,-40.9201 -17.46484,-66.1074 -6.79219,-25.1873 -13.76874,-54.3927 -15.50196,-64.9004 -1.73317,-10.5077 -7.07591,-27.9789 -11.87304,-38.8262 -17.82029,-40.2948 -37.41301,-118.9218 -41.77735,-167.6523 -2.25581,-25.1873 -6.90401,-65.6382 -10.33007,-89.8926 -3.42607,-24.25449 -8.17105,-58.60187 -10.54297,-76.32622 -4.9575,-37.04557 -31.69429,-119.29598 -55.24609,-169.95118 -8.328,-17.91254 -18.533,-46.15351 -22.6777,-62.75781 -7.7586,-31.08125 -15.6191,-49.20846 -36.625,-84.46484 -15.7259,-26.3943 -22.6471,-33.93234 -63.3887,-69.03516 -43.9496,-37.86686 -65.5573,-58.611 -89.5195,-85.94141 -6.3249,-7.21387 -15.8652,-15.69564 -21.2012,-18.84765 -5.336,-3.15205 -9.7031,-8.36489 -9.7031,-11.58399 0,-3.21909 -1.569,-6.82285 -3.4864,-8.00781 -2.0215,-1.24936 -3.2108,-13.91453 -2.832,-30.14844 0.3594,-15.39696 -0.5886,-30.00275 -2.1055,-32.45703 -1.5168,-2.45431 -2.6344,-8.73438 -2.4863,-13.95508 0.2139,-7.53048 -0.9104,-9.04967 -5.4355,-7.35546 -4.9239,1.84354 -5.0812,1.37079 -1.1543,-3.45899 3.6372,-4.47356 3.7862,-9.19061 0.7461,-23.5332 -5.0956,-24.04044 -17.9914,-56.94922 -22.3165,-56.94922 -1.9174,0 -6.3215,-5.26412 -9.7871,-11.69922 -4.1626,-7.72951 -9.6035,-12.42528 -16.0351,-13.83789 -10.6619,-2.34176 -13.2745,-8.25639 -3.7988,-8.59961 4.5483,-0.16479 4.1505,-0.93268 -1.6973,-3.2832 -4.1979,-1.68733 -7.6328,-4.73358 -7.6328,-6.76953 0,-2.03596 1.5269,-2.75857 3.3926,-1.60547 5.4628,3.37625 4.037,-1.5322 -7.0665,-24.32422 -6.8434,-14.04737 -12.4866,-21.4707 -16.3222,-21.4707 -3.2243,0 -9.1559,-3.06775 -13.1817,-6.81836 -4.0258,-3.75058 -8.512,-6.63896 -9.9687,-6.41797 -5.5068,0.83516 -17.9121,-4.65561 -17.9121,-7.92774 0,-1.87657 -2.5387,-1.31645 -5.6406,1.24414 -4.5359,3.74419 -5.9296,3.79725 -7.1153,0.27344 -1.1703,-3.47826 -2.5078,-3.52379 -6.4902,-0.21875 -3.9884,3.31004 -5.5896,3.2388 -7.8086,-0.35156 -1.5353,-2.48406 -5.2358,-3.57977 -8.2227,-2.43359 -2.9868,1.14618 -5.4297,0.68469 -5.4296,-1.0254 0,-0.89344 -1.0834,-1.29292 -2.8965,-1.21484 z m 41.7187,39.54102 c 0.9124,0.008 2.1571,1.5221 3.0547,3.86132 2.2938,5.97748 0.339,7.02936 -3.0059,1.61719 -1.2297,-1.98984 -1.5083,-4.34712 -0.6191,-5.23633 0.1667,-0.16667 0.3598,-0.24407 0.5703,-0.24218 z m -130.6133,93.90039 c 1.9759,0 3.5938,1.52685 3.5938,3.39258 0,1.86572 -0.6733,3.39257 -1.4961,3.39257 -0.8227,0 -2.4407,-1.52685 -3.5938,-3.39257 -1.153,-1.86573 -0.4797,-3.39258 1.4961,-3.39258 z m 129.9766,49.10156 c -0.1504,0.008 -0.2785,0.0577 -0.3789,0.1582 -0.8029,0.80293 0.472,3.78722 2.832,6.63086 6.0518,7.29196 7.6944,6.42509 2.7696,-1.46093 -1.9927,-3.19076 -4.1713,-5.37084 -5.2227,-5.32813 z m 126.5371,39.09766 c 0.8228,0 1.4961,1.52685 1.4961,3.39257 0,1.86573 -1.616,3.39063 -3.5918,3.39063 -1.9759,0 -2.6492,-1.5249 -1.4961,-3.39063 1.1531,-1.86572 2.7691,-3.39257 3.5918,-3.39257 z m -295.5117,58.74804 c 0.9124,0.008 2.157,1.52211 3.0547,3.86133 2.2937,5.97748 0.339,7.02936 -3.0059,1.61719 -1.2298,-1.98985 -1.5083,-4.34517 -0.6191,-5.23438 0.1667,-0.16667 0.3598,-0.24603 0.5703,-0.24414 z m -38.6231,76.93946 c -4.2776,0 -7.341,5.2977 -4.6308,8.00781 3.8203,3.82031 7.8242,2.32783 7.8242,-2.91797 0,-2.79859 -1.4378,-5.08984 -3.1934,-5.08984 z m 162.7442,6.78515 c 2.022,0 2.7332,1.52685 1.5801,3.39258 -1.1531,1.86573 0.1738,3.39258 2.9492,3.39258 2.7754,0 7.6046,2.5578 10.7324,5.68555 5.3781,5.37811 16.2942,8.46274 29.5684,8.35351 3.2649,-0.0265 5.9375,1.38301 5.9375,3.13281 0,1.74977 2.3428,3.18164 5.207,3.18164 4.0975,0 4.4581,1.39783 1.6953,6.56055 -4.3952,8.21186 -4.5515,14.83554 -0.2891,12.20117 4.7379,-2.92811 11.3026,11.35655 8.2579,17.96875 -1.4363,3.11925 -2.723,7.33244 -2.8594,9.36133 -0.1365,2.02889 -2.8627,6.30217 -6.0567,9.49609 -3.1939,3.19393 -6.9853,7.72181 -8.4257,10.0625 -1.4405,2.34074 -7.9622,6.95535 -14.4922,10.25586 -35.4293,17.90737 -37.3433,20.08567 -27.1797,30.9043 4.4051,4.689 9.8975,8.52539 12.2051,8.52539 6.3471,0 18.7158,16.48727 31.9375,42.57617 6.53,12.88498 13.4862,24.98728 15.4589,26.89258 1.9728,1.90538 7.7194,9.95153 12.7696,17.88086 l 9.1816,14.41602 -12.7695,0.45508 c -7.023,0.25058 -19.6375,0.0653 -28.0332,-0.41211 -8.3958,-0.47762 -22.898,-1.16713 -32.2266,-1.53125 -9.3286,-0.36397 -18.6286,0.57227 -20.666,2.08007 -2.0374,1.508 -4.3267,2.13048 -5.0879,1.38282 -0.7612,-0.74767 -8.4075,-2.08688 -16.9922,-2.97461 -27.8936,-2.88439 -37.6594,-11.81158 -38.9922,-35.64649 -0.4899,-8.76279 -1.9302,-21.65782 -3.1992,-28.65429 -1.368,-7.54303 -0.9669,-12.72071 0.9844,-12.72071 1.8099,0 8.1146,-9.04881 14.0098,-20.10937 5.8952,-11.06056 15.2671,-23.93758 20.8261,-28.61524 10.0683,-8.47185 13.1658,-15.72656 6.7149,-15.72656 -1.8658,0 -3.3926,-5.34301 -3.3926,-11.87305 0,-7.63714 1.4994,-11.57089 4.2031,-11.02539 2.7354,0.55193 3.826,-2.47227 3.125,-8.66015 -0.5925,-5.22951 0.3613,-11.335 2.1192,-13.56836 1.7579,-2.23336 3.2256,-6.34985 3.2558,-9.14844 0.03,-2.79859 1.1668,-7.76037 2.5215,-11.02539 1.4779,-3.56198 0.9602,-5.93555 -1.293,-5.93555 -2.0653,0 -3.7558,-3.0537 -3.7558,-6.78515 0,-3.81812 2.263,-6.78516 5.1738,-6.78516 2.8447,0 6.6231,-3.81619 8.3965,-8.48047 1.7733,-4.66431 4.8783,-8.48047 6.9004,-8.48047 z m -169.082,26.02149 c 1.8982,0.0529 4.1265,2.22082 8.2636,7.03125 4.4233,5.14306 8.0446,11.1686 8.0469,13.39062 0.01,9.20871 -5.9525,6.7137 -10.2734,-4.29883 -3.1161,-7.9415 -6.246,-11.20673 -9.5332,-9.94531 -4.0323,1.54734 -4.1357,0.96421 -0.5879,-3.31055 1.4177,-1.70823 2.516,-2.70458 3.707,-2.84961 0.1241,-0.0151 0.2504,-0.0211 0.377,-0.0176 z m -3.9317,14.68554 c 1.8072,0 3.2852,2.28931 3.2852,5.08789 0,2.79859 -0.5988,5.0879 -1.3321,5.0879 -0.7332,0 -2.2131,-2.28931 -3.2871,-5.0879 -1.0739,-2.79858 -0.4731,-5.08789 1.334,-5.08789 z m 116.1953,337.5293 c 4.9054,-0.10734 10.4469,1.13682 18.1797,3.38477 27.8805,8.10504 49.7428,33.22012 38.6094,44.35351 -1.9575,1.95746 -2.1727,7.41918 -0.5293,13.40039 2.2391,8.14912 1.242,11.94327 -5.1758,19.6836 -7.4068,8.93314 -9.4835,16.4492 -8.2168,29.75004 0.2839,2.9794 -1.4485,7.0049 -3.8496,8.9453 -11.1812,9.036 -40.0545,7.1283 -66.3301,-4.3828 -3.2336,-1.4167 -6.918,-2.3681 -8.1875,-2.1153 -1.2694,0.2529 -6.504,-1.7172 -11.6308,-4.3769 -5.1269,-2.6599 -10.3833,-4.17938 -11.6817,-3.377 -5.5439,3.4263 -20.1758,-15.31575 -20.1758,-25.84373 0,-23.00519 7.0383,-36.89313 23.4981,-46.37305 8.5325,-4.91422 21.6191,-13.74412 29.082,-19.6211 11.8261,-9.31294 18.2327,-13.24866 26.4082,-13.42773 z"
           id="path5456"
           transform="scale(0.26458333)" />
      </g>
      <path
         inkscape:connector-curvature="0"
         id="path5501"
         transform="scale(0.26458333)"
         d="m -2124.5957,-1233.1309 -141.7109,183.4454 h 45.9296 v 279.97847 l -25.8085,23.54101 25.8085,22.7793 v 60.31445 h -60.3242 l -22.7793,-25.8164 -23.539,25.8164 h -203.4024 v -50.46679 l -185.0742,146.23828 185.0742,147.31445 v -51.52539 h 203.4024 l 23.539,25.86328 22.7793,-25.86328 h 60.3242 v 60.33399 l -25.8085,22.78125 25.8085,23.53906 V 681.49609 h -34.33 v 46.09766 h -42.9961 v 39.24609 h -66.1973 c -27.5057,0 -37.5508,23.47309 -37.5508,44.59766 v 445.5527 a 1612.4914,1612.4914 0 0 0 553.709,293.5762 V 811.4375 c 0,-21.12454 -10.043,-44.59766 -37.5488,-44.59766 h -66.1973 v -39.24609 h -42.9961 v -46.09766 h -34.3203 V -364.85742 l 25.8613,-23.53906 -25.8613,-22.78125 v -60.33399 h 60.3145 l 22.7793,25.86328 23.539,-25.86328 h 203.4024 v 51.52539 l 185.0742,-147.31445 -185.0742,-146.23828 v 50.46679 h -203.4024 l -23.539,-25.8164 -22.7793,25.8164 h -60.3145 v -60.31445 l 25.8613,-22.7793 -25.8613,-23.53906 v -279.98042 h 45.9199 z"
         style="opacity:0.98999999;fill:#000000;fill-opacity:1;stroke:#000000;stroke-width:9.17444897;stroke-linejoin:round;stroke-miterlimit:4;stroke-dasharray:none;stroke-opacity:1" />
      <path
         inkscape:connector-curvature="0"
         id="path3726-6-8-2-8"
         transform="scale(0.26458333)"
         d="m -645.90234,-1233.1309 -141.71289,183.4454 h 45.93164 v 279.98042 l -25.8086,23.53906 25.8086,22.7793 v 60.31445 h -60.32422 l -22.7793,-25.8164 -23.53906,25.8164 h -203.40233 v -50.46679 l -185.0742,146.23828 185.0742,147.31445 v -51.52539 h 203.40233 l 23.53906,25.86328 22.7793,-25.86328 h 60.32422 v 60.33399 l -25.8086,22.78125 25.8086,23.53906 V 681.49609 h -34.33008 v 46.09766 h -42.9961 v 39.24609 h -66.19726 c -27.5057,0 -37.55078,23.47309 -37.55078,44.59766 v 738.4551 a 1612.4914,1612.4914 0 0 0 553.71093,-292.4492 V 811.4375 c 10e-6,-21.12454 -10.04489,-44.59766 -37.55078,-44.59766 h -66.19726 v -39.24609 h -42.9961 v -46.09766 h -34.32226 V -364.85742 l 25.86328,-23.53906 -25.86328,-22.78125 v -60.33399 h 60.3164 l 22.7793,25.86328 23.53906,-25.86328 h 203.40235 v 51.52539 L -55.001953,-567.30078 -240.07617,-713.53906 v 50.46679 h -203.40235 l -23.53906,-25.8164 -22.7793,25.8164 h -60.3164 v -60.31445 l 25.86328,-22.7793 -25.86328,-23.53906 v -279.98042 h 45.92187 z"
         style="display:inline;fill:#000000;fill-opacity:1;stroke:#000000;stroke-width:1.65857828;stroke-linecap:butt;stroke-linejoin:miter;stroke-miterlimit:4;stroke-dasharray:none;stroke-opacity:1" />
      <path
         sodipodi:nodetypes="csssc"
         id="path5501-8"
         d="m -187.54267,388.10793 c -16.45028,7.67297 -33.09864,14.47849 -50.40202,19.99915 -41.546,13.2553 -85.2503,20.18204 -129.66876,20.18204 -42.9375,0 -85.27782,-6.33223 -125.57619,-18.73701 -6.11513,-1.88237 -12.11468,-4.04167 -18.13444,-6.19536"
         style="opacity:0.98999999;fill:none;fill-opacity:1;stroke:#000000;stroke-width:1.42700005;stroke-linejoin:round;stroke-miterlimit:4;stroke-dasharray:none;stroke-opacity:1"
         inkscape:connector-curvature="0" />
    </g>
  </g>
</svg>
